<svg xmlns="http://www.w3.org/2000/svg" width="860" height="124" fill="none">
  <path fill="#000" d="M757.57 37.9799c-.07-.02-.12-.04-.19-.07-.02.16.03.19.19.07Z"/>
  <path fill="#000" d="M761.21 41.63c.14-.94 1.31-1.62.69-2.79-.7-.37-1.41-.85-2.14-1.17-.74-.3-1.55-.27-2.34.42.48-.38-.04.15-.51 1.25-.49 1.12-.85 2.78-.52 4.63.14.78.53 1.6799.91 2.2099.38.54.81.6501 1.17-.2399-.11.25-.22.5-.32.77.25.09.59.37.69.27 1.84-1.74 2.4-2.2001 2.42-2.6901.04-.48-.34-.9699-.05-2.6599Zm-13.9 4.0498c.63 1.76 1.13 4.11 1.97 3.41.98-.83 1.07-3.64-1.97-3.41ZM592.43 101.25c-.54.28-.95.75-1.62 1.34 3.33 1.92 2.68-1.91 1.62-1.34Zm115.36-56.5801c-1.1-2.4-1.54-.96 0 0Zm-124.04 31.74c-.16-2.05-2.05.13-2.9.92 1.07.63 3.19 2.43 2.9-.92ZM64.92 39.98c-.54.09-.4299-.03-.1299.35l.1299-.35Zm18.09-4.5801c-.55.01-.4299-.09-.1799.33l.1799-.33ZM737.92 40.51c.83-1.53.91-1.08-.52-1.78-.59 1.52-.71 1.14.52 1.78ZM467.35 70.45c-.36 1.01 1.29.54.84.33-.27-.12-.55-.22-.84-.33Zm18.89 7.57c-.33 1.02 1.34.52.87.32-.28-.12-.58-.22-.87-.32ZM97.6598 32.6699c-.55-.04-.4199-.13-.2099.31l.2099-.31Zm144.5702 63.47c-.06.11-.15.28-.3.47.15.2.05.13.3-.47Zm-113.92-61.66c-.53-.18-.38-.2299-.29.2401l.29-.2401Zm136.42 57.65c-.01.12-.04.31-.12.54.23.13.11.1.12-.54Zm478.38-47.19c-.03.25-.07.16 0 0Z"/>
  <path fill="#000" d="M752.15 44.79c-.18.38-.41.86-.7 1.47-.06.12-.48 0-.74 0 0-.17.01-.34.02-.5h-.04c-.13.66-.57.58-1.1.21-.53-.35-1.15-1.03-1.52-1.66-.15-.27-.26-.53-.38-.79-.56-.11-.51 2.67-.13 4.55-.75.94-1.37 1.5-1.92 1.7-.55.23-1.03.12-1.42-.21-.77-.61-1.16-2.15-.67-3.56-.12-.27-.2-.55-.21-.81-.01-.26.04-.48.12-.7l-.05.03-.17.19c-.04.07-.08.15-.12.22v.02-.05c0 .08-.06.18-.08.25-.1.3-.2.61-.3.93-.34 1-1.03 1.75-1.98 2.04.85.16 1.29.73 1.45 1.33.38.67.33 1.56-.12 2.09-.56.66-1.23-.17-1.94-1.26-.2.98-.62 1.94-1.41 2.79-1.63-2.94-1.8-3.26-2.12-3.32-.02.37-.05.78-.07 1.29 0 .16-.52.27-.83.39-.12-.27-.21-.52-.31-.77.75 1.74-1.96 1.13-3.28.22-.14-.1-.23-.21-.36-.31-.08.35-.18.69-.35 1 .03.05.05.09.07.14.1.16.2.34.28.52.8 1.57.86 2.73.49 3.6-.15 1.08-.61 1.78-1.4 1.49-1.3.77-2.99.94-3.32.7l-.25.35c.38.55.42 1.3.06 1.91-.38.63-.93.46-1.57-.01-.49.54-.99 1.02-1.49 1.44-1.33 2.41-2.93 2.35-3.85 1.22-.5-.33-.86-.99-1-2.12-1.33-.63-2.01-.95-2.53-1.17v.02c1.23.58 1.79 2.58 1.78 4.25 1.21.89.78 3.2-.93 2.46-.23.06-.49 0-.79-.22-.07 1.02-.41 2.13-1.17 3.2-.61-.71-1.06-1.23-1.41-1.63-.76.28-1.49.28-1.85 0 .08.34.14.69.15 1.07-1.82 2.95-3.03 4.38-3.97 4.87-.43 1.21-1.7 2.05-2.9 2.53-1.2.49-2.31.62-2.57.45-.2.27-.4.53-.61.79-.12.24-.21.46-.37.72-.06-.03-.13-.05-.19-.06-.84.99-1.8 1.82-2.73 2.49-.93.67-1.84 1.17-2.63 1.41-1.58.48-2.66-.1-2.61-2.4-.36-.2-.64-.35-.92-.51 0 .42-.12.84-.37 1.24.5 2.66-1.03 6.46-2.68 4.04-.9 1.27-2.37 1.86-3.46 1.8-.96.6-2.05 1.45-3.27 2.93-.04-.03-.08-.06-.12-.08-2.18 2-3.37 2.37-4.17 1.96-.81-.41-1.29-1.63-2.22-3.02.04-.07.07-.13.12-.2-1.06-.21-1.61-.78-1.79-1.5-.14-.24-.23-.51-.26-.79-.33.35-.64.64-.99.86.6 1.21 1.12 2.29 1.11 3.51-.02 1.19-.54 2.62-2.18 4.23-1.12-1.02-3.27 2.55-4.97.77-.16.02-.3.02-.45.03-.39.86-.84 1.75-2.13 2.89-.92.8-4.4 1.03-2.37-3.45-.52.43-1.25.77-2.28.92-.86 2.89-2.53 2.33-5.26 3.52-.11.08-.25.19-.44.34l-.09-.09c-.81.39-1.71.98-2.73 1.78-.75-.89-1.31.31-2.25-1.41-.23.33-.57.56-1.09.66-.5.1-1.01 0-1.38-.25-.91 1.04-1.11 2.27-3.2 3.68-.68.46-2.53.5-2.81-.85-.13.08-.32.19-.59.38-.75-1-.8-.65.31-1.39.1.16.18.28.25.38.03-.27.13-.59.26-.94-1.47 1.13-3.46 1.02-4.35.43-1.94 1.13-1.68 2.52-4.42 4.2-.74.45-2.73.39-2.74-1.2-.24-.68.01-1.76 1.23-3.45-.74-.04-1.33-.12-1.87-.28-.08 1.48-.32 2.85-1.81 2.95-1.58.11-3.06-1.61.18-3.68-.97-.73-1.06-1.72-.62-2.65-.42.44-.94.89-1.51 1.33 0 .04.01.07.02.1-.65 3.93-1.97 3.15-2.99 2.07-.51.38-.96.72-1.27 1.05-.52-.91-.84-1.62-1.08-2.24-1.65-.08-2.36-.82-2.54-2.25-.37-.03-.72-.06-1.1-.1-.3 1.1-.29 1.94 1.22 2.83.6-.27.51-.35.44.27.02.01.04.02.06.04.01 0 .02 0 .03-.02v.04c3 1.85 1.2 1.7-.41 2.95-.22.77-.64 1.34-1.43 1.48-.55.53-1.33 1.2-2.25 1.64-.35.17-.95.2-1.49.03-.41.32-.91.65-1.59.98-.67.32-2.24.16-2.56-.91-.33-1.06.63-3.02 4.74-6.31.12.08.19.13.3.2.33-.55.34-1.21-.36-2.01-.34.38-.76.68-1.26.91-.66 1.01-1.31 2.07-2.29 2.87-.98.8-2.29 1.38-4.23 1.32-.08.05-.17.11-.32.15-2.6.8-2.28 2.34-5.43 3.71-.65.26-2.08.03-2.44-.94-1.59.45-3.82.17-4.8-.37-.43-1.08.12-1.52.99-1.88-.35-.91.47-2.28 4.01-3.34-.05.25-.1.5-.16.75.61-.52 1.43-.92 2.04-1.16-.92-2.59.79-1.5-2.55-2.74-.06-.16-.1-.27-.16-.42-.18.75-.99 1.47-2.05 2.14-.1.15-.27.24-.51.31-1.75 1.06-3.92 1.9-4.97 2.75-.08-.23-.15-.42-.23-.63-1.08.77-.82-.09-1.2 3.24-1.2-.28-2.2-.52-3.12-.73-.56.48-1.67 1.3-3 1.75-1.04.35-3.86-.62-1.42-3.42-.74-.52-1.2-1.18-1.5-2.09-.36.33-.75.63-1.18.88.64 1.28.63 2.17.21 2.77.09-.01.17-.02.25-.03.06.47.34 2.03-.83.99-.12-.11-.21-.2-.26-.29-1.58.68-4.37.14-5.44-.59-.49-1.61.92-1.72 2.45-2.17-.43-.04-.85-.07-1.35-.18 0-.56-.01-.89-.04-1.09-.04-.08-.06-.16-.08-.25-.08-.03-.23.24-.46.44-.98.86-3.29.51-1.72-1.66-5.27 2.53-2.53 5.82-4.19 4.23-1.52.89-4.65.28-5.76-.59-.11-.4-.07-.69.02-.92-.04-.59.23-.92.7-1.13-1.31-.62-2.13-1.26-2.59-2.21-1.07.17-1.57 0-1.85.01-.38.18-.34.37-.89 2.76-3.09-1.09-5.1-1.85-6.42-2.65-.07.16-.13.33-.24.45h.28c0 .47.13 2.06-.91.9-.13-.14-.2-.25-.24-.35-.75.26-1.72.28-2.65.07-1.52.92-4.73.04-5.82-.88-.41-2.09 1.97-1.48 3.91-2.26-4.74-.17-.95-3.42-3.42-2.02-.13-.62-.2-1.09-.25-1.46-.05.04-.08.06-.14.11-.5-.86-.62-.74-.07-1.1-.12-.28-.32-.5-.72-.78.7 1.98-.07 3.58-.64 5.57-1.03-.44-1.93-.83-2.73-1.17-.14.43-.28.88-.42 1.34-.26-.13-3.66 1.35-6.28-1.06-.15-.9.19-1.28.78-1.49-1.25-.73-1.99-1.44-2.37-2.43-2.55.17-1.78-1.22-2.84 2.03-2.89-1.37-4.8-2.25-6.04-3.15-.59 2.63-5.28 1.14-6.58-.15-.33-2.86 4.48-.65 4.69-2.78-.27.06-.58.02-.63-.29-1.57-.11-5.13-.9-5.93-2.25-.21-.16-.38-.29-.57-.44-.06.04-.09.06-.16.1l-.18-.36c-.09-.07-.21-.16-.29-.22-.04 1.41-.7 2.65-1.26 4.14-5.84-3.06-7.67-3.9-7.61-7.17-.51.06-1.28-.06-2.4-.42-.11.11-.25.19-.43.24l.14.04c.42.16-.81.61-.91.02-1.08-.09-2.89-.71-5.95-2.16-.03-.23-.02-.42-.02-.61-1.17-1.03-2-1.98-2.6-2.8-.11 1.46-.52 2.34-4.64.64-.55.05-1.09-.18-1.53-.69-.32-.15-.62-.3-.97-.47-.07.01-.13.03-.2.04-2.31-2.1-3.39-2.74-3.3-3.44-1.07-1.02.22-.89 3.4-3.66-.24-.19-.91-.38-2.34-.71-.88 2.44-1.41 4.93-4.55 2.03-.56-.51-.41-1.17-.32-1.72-.28-.22-.61-.61-1.02-1.25-1.41 2.5 1.51 6.58-7.51 1.86-.94.27-1.65-.15-2.15-.91-.25.09-.54.16-.87.2-3.45-3.29-4.01-5.38-4.15-6.9-.18-.06-.34-.12-.54-.18-.13 1.19-.4 2.08-.74 2.74-1.05 2.59-3.05 2.21-3.78.15-.12.03-.24.07-.37.09-.5-.46-.94-.84-1.33-1.18-2.8.65-10.28-2.24-12.82-4.96-2.68 2.49-4.05-1.13-4.32-3.63-.27-.51-.55-.99-.86-1.34-.26-.3-.6-.55-.99-.78-.72-.09-1.63-.17-2.79-.46 0 .31-.02.58-.05.85 2.68-.27 4.76 1.54 4.84 2.84.04.66-.4 1.22-1.48 1.41-1.08.18-2.78-.02-5.27-.74-.39.06-.79-.07-1.14-.37-.94-.34-1.99-.73-3.16-1.16-.87.2-2.05.19-3.35.02-1.3-.16-2.69-.37-4.02-.76-.66-.18-1.31-.42-1.91-.65-.6-.21-1.16-.45-1.66-.71-.99-.53-1.73-1.17-2-1.89l-.11.05c-.51 1.61-1.15 1.38-1.89.64-.52.13-1.06.24-1.63.32-.52.52-1.56.86-3.24.97-.84.09-1.83.11-3.03.04-.59-.03-1.25-.13-1.94-.16s-1.43-.09-2.23-.17c-.63.24-1.44.42-2.46.53-.27 1.24-.98 2.22-2.35 2.14-1.12-.06-1.91-.8-2.37-1.78-.81.03-1.66.11-2.62.12-1.03-2.16-.15-1.8 1.44-1.94-.7-.09-.81-.63-.85-1.2-.1-.26-.17-.59-.19-1.03-.09-.19-.23-.34-.48-.4-.25.52-.6 1.01-1.02 1.45.27 1.09-.4 2.09-1.53 3.06-.57.5-1.26.97-2.01 1.38-.76.42-1.59.75-2.44 1.14-3.41 1.34-7.31 2.1-8.63.16-.49 1.14-1.14 1.72-1.92 1.85-.47 1.3-1.8 2.41-4.11 1.65-1.4 1.63-3 2.11-3.48-2.09-.7-.59-.76-.38-1.42-.53.09.91.04 2-.21 3.01.97 1.02.9 2.52.02 3.44-.44.46-1.09.78-1.93.84-.84.08-1.87-.09-3.09-.66-.48-.07-1.01-.2-1.58-.4-1.28 6-6.2 5.9-6.39 6.82-.94 5.28-6.48 2-10.07.29 1.81 3.23.71 5.64-1.25 6.98-.58 2.06-2.17 3.8-5.4 3.39.05 1.34-.88 2.61-2.88 2.26-.55 1.98-2.15 3.91-4.6 4-.29.65-.64 1.15-1.06 1.52-.54 1.03-1.9 1.95-4.76.4-.86 1.58-2.49 2.34-3.79 1.09.82 2.18.21 3.96-1.02 5.21-1.24 1.25-3.13 1.98-4.79 2.07-.17.81-.76 1.8-2.48 3.64l-.06.07c-.08.09-.14.15-.22.24v-.02c-.9.79-2.53.94-4.93-.66-.42-.04-.87-.07-1.37-.12-.05.85-.15 1.62-.29 2.32-.04.33-.11.64-.23.96-.58 2.12-1.69 3.3-2.92 3.79-1.25.47-2.64.24-4.03-.58-1.25 1.8-3.47 2.52-4.57.47-1.43.92-2.69 1.16-3.86 1.12-.67 1.27-.36 1.97-.52 2.9-.09.46-.29.99-.83 1.64-.55.65-1.43 1.44-2.86 2.48-.6.6-1.49 1.37-3.02 2.31 0-.28.01-.53.02-.8-.45.92-.28.5-4.58-.73-.45.63-1.32.9-2.49.79-.27.86-.55 1.48-1.24 2.15-.69.67-1.77 1.4-3.79 2.29.17-1.05.25-.97-.23-.28-1.65-.65-2.88-1.18-3.82-1.59-.95-.43-1.63-.79-2.11-1.01-.97-.46-1.23-.52-1.51-.43-1.16.34-2.13.55-2.99.58-.87 0-1.6-.11-2.28-.33-1.59 1.04-1.55 1.87-2.09 2.73-.27.42-.69.88-1.57 1.3-.88.4-2.22.8-4.35 1.19.12-.26.23-.49.34-.74-.47.38-1.31-.05-2.38-.92-1.07-.89-2.37-2.14-3.84-3.23-.3 1.46-1.19 2.45-2.46 2.44-1.26-.05-2.93-1.08-4.54-3.45-.39.53-.82.88-1.3 1.06-.48.16-1.01.15-1.62 0-1.2-.31-2.71-1.14-4.54-2.42.29-1.21.45-1.83.53-2.37-.13-.51-.14-1.11-.13-1.76-1.04.29-1.89.27-2.54.02 1.96 1.84 2.94 3.38.27 5.12-1.99-.86-3.43-1.67-4.33-2.56-1.06.47-2.08 0-2.94-.89-1.37 1.07-3.09.31-4.08-1.39-.51.29-2.4-.77-3.75-2.26-1.22-.74-1.6-.98-2.87-2.44-.69.56-1.52.93-2.36.46-.8-.48-1.58-1.82-2.11-4.6-.99.75-1.85.92-2.67.59-.81-.33-1.59-1.15-2.5-2.34h-.05c-.7-.59-1.29-1.16-1.76-1.75-.34.23-.75.44-1.3.62-1.45-1.27-2.38-2.4-2.94-3.41-2.17.45-3.01-2.47-3.15-4.95-.23.13-.45.24-.67.32-.34.36-.92.71-1.93 1.01-4.07-3.83-3.36-2.28-5.54-6.17.74-1.01 1.63-2.1 2.31-3.06-.57.46-1.31.57-2.3.03-.07.09-.14.16-.22.24-.9 1.36-2.15 1.29-1.98-.79-1.78 1.3-2.77.9-3.48.23-.7-.66-1.12-1.58-1.76-1.35-2.66-2.49-3.29-4.77-3.36-6.75-.89-.69-1.64-1.31-2.04-1.77-1.25 1.78-1.39.81-1.7-.75-1.17.99-1.98 1.59-2.83 1.37-.86-.19-1.76-1.14-3.19-3.34 1.01-1.78 1.43-2.38 1.57-2.96-.63.43-1.53.4-2.95-.42-.4.2-.89.25-1.51.05-.74 1.43-1.82 1.42-1.83-.9-.15-.08-.26-.26-.36-.46-.46-.03-1.05-.32-1.68-.78-.63-.46-1.3-1.13-2.01-1.78-1.12.11-2.69-.25-4.14-.77-1.5-.42-2.88-1-3.57-1.46-.68 2.04-1.02 1.19-1.71-.11-.68-1.3-1.73-3.13-3.5-3.16-.75 0-1.3-.27-1.75-.79-.39 1.3-1.46 1.77-4.61.78-.04-.04-.08-.12-.12-.17-.43-.02-1.02-.17-1.82-.47 0 .72-.48.98-1.22.93-.37-.03-.8-.14-1.28-.3-.48-.14-1.01-.34-1.55-.59-1.08-.49-2.23-1.17-3.23-1.89-1.01-.66-1.87-1.38-2.33-2.03-.19.24-.41.45-.67.6 1.62 2.55.08 3.26-1.88 2.86-1.98-.33-4.55-1.7-5.05-3.63-.1 0-.22-.01-.32-.02-.28 1.16-.71 1.8-2.09.2-1.32 1.55-2.35.05-3.11-1.72-.56-.52-.65-.86-1.3299-.34.4199.51.5399.92.4599 1.26.36.72 0 1.32-2.1999 1.47.92 1.04 1.55 1.97 1.23 2.5-.16.26-.5601.43-1.2901.46-.73.04-1.79-.12-3.28-.3-3.17-.44-3.7199-2.01-3.8799-3.08-.15-1.05.0498-1.69-1.7202-.03-.21.61-.4099 1.22-.8999 1.63-1.95.09-2.4399-.77-2.6999-1.09-.26-.31-.3402-.1-1.3702 2.26-.15-.2-.3999-.5-.6899-.81-.5.11-.9499.2-1.3599.29.1.51-.18 1.01-1.26 1.25-.28.95-.2702.7-.9402.22-2.39.64-3.94.71-5 .58-1.04-.09-1.5899-.42-1.9499-.64-.26.31-.4401.5-.5801.6.96 1.11-.38 2.01-2.46 2.47-1.03.28-2.25.45-3.5.48-.62.02-1.2498 0-1.8598-.06-.6-.04-1.18-.11-1.72-.23-1.83 2.81-1.8301 3.01-2.3701 2.66-.54-.36-1.5499-1.28-5.3599-.57-.12-.08-.03-.12-.32.05 1.56.48 3.2598.35 3.3598 2.51-2.84 1.35-4.1798 2.16-5.3698 2.48-1.17.34-2.2.15-4.17.02-1.4 3.04-1.3602 3.24-1.9502 2.97-.29-.13-.7298-.4-1.5398-.48-.81-.06-2 .06-3.82.69-.35-.15-.7402-.46-1.1502-.87-1.44.59-2.1999.85-2.6899.91 2.48 2.35 2.8301 2.46-1.6799 2.38 1.32 1.18 2.0598 1.81 1.8898 2.12-.17.32-1.2698.27-3.5698.35-1.01 1.78-2.3301 1.94-3.6501 1.74-1.29-.17-2.58-.73-3.48-.51-.15.59-.31 1.16-.48 1.68.69.52 1.3201.99 1.8501 1.38-.06.18-.09.37-.04.56.02.08.03.15.05.23v.37c-.02.11-.0601.22-.0901.33-.08.17-.18.33-.29.48-.09.1-.17.2-.26.29-.03.04-.0501.08-.0801.12-.8.11-1.78.24-3 .41-.33.66-.7598 1.13-1.3498 1.34-.29.97-.7701 1.98-1.5701 2.85-.78.88-1.9101 1.59-3.2901 2.16-.21 1.24-.57 2.21-1.28 2.72l1.1602.58v.06l-.0501.13-.1001.25-.0598.12s-.02.03-.03.05l-.0701.12c-.1.14-.2401.28-.3301.43l-.0798.07-.21.18-.2202.17s-.0398.03-.0698.04h-.01c-.18.1-.35.21-.53.3l-.24.11-.1602.05c-.34.11-.5699.35-.6899.68-.78.25-1.68.55-2.71.91-1.04.36-2.1899.79-3.43 1.36.03 1.4.16 2.84.21 4.13l-.1699.19-.35.34-.18.18v.01c-.22.19-.45.38-.7.55-.11.07-.23.15-.34.22-.02 0-.0701.03-.0801.04-.05.03-.0999.06-.1099.06-.25.12-.51.23-.77.31l-.1902.06h-.0498c-.14.04-.2802.07-.4202.1-.31.05-.6199.08-.9199.08-.07 0-.16.02-.22 0h.02-.05c-.18 0-.36-.02-.54-.04-.41-.04-.81.14-1.06.53-.19.3-.21.69-.07 1.01l-.2399.3c-.71-.26-1.29-.54-1.74-.83-.07-.19-.1402-.39-.1902-.6-.06-.21-.1099-.42-.1499-.64 0-.06-.04-.21-.04-.22l-.05-.34c-.06-.49-.08-.99-.07-1.49.01-.23.02-.47.03-.7l.0198-.16.06-.38c.03-.2.0802-.39.1302-.59.9-1.27 2.0899-2.22 1.8799-2.71-.94-2.27-.56-3.43.09-4.23.64-.82 1.65-1.24 1.94-2.29.67-2.25 1.74-3.2 3.22-3.38.23-.72.52-1.39.97-2.08.42-.66.99-1.26 1.58-1.75.57-.5 1.3-.88 1.99-1.13.08-.03.15-.03.22-.06-.56-2.84.44-3.73 1.46-4.41-.59-2.8.1901-4.1 1.3901-4.64.6-.27 1.31-.35 2.02-.34.72.02 1.4599.13 2.0999.2.17-.1.33-.2.49-.3.14-2.02 1.0001-1.65.4401-2.58.08-.27.1898-.52.2898-.78.02-.04.0401-.09.0501-.11.03-.06.1001-.18.1101-.2.41-.77.9698-1.45 1.5598-2.1.14-.15.1902-.33.2102-.52l.1799-.28c.31.02 1.02.2 1.92.29.26-.18.4999-.39.6899-.69.54-.85 1.0902-1.44 1.6902-1.79.31-2.83 2.04-3.29 3.79-3.05.46-4 .85-5.14 1.43-5.47.6-.31 1.4198.15 3.0898-.59 2.3-.97 2.3702-2.36 3.2102-3.61.41-.63 1.03-1.2 2.23-1.6 1.19-.4 2.92-.7 5.55-.64.14-.44.4298-.78.7998-1.04 1.1-3.07 2.1802-1.31 4.4502-1.97 1.99-.51 2.4699-1.64 3.3099-2.67.42-.51.9199-1.01 1.7399-1.36.83-.33 1.9802-.52 3.6402-.47 1.68-3.42 1.6799-1.22 4.6499-1.68.2-.03.37-.08.55-.12.67-.69 1.3301-1.37 2.6001-1.7.59-.68 1.1799-1.33 2.3999-1.67.61-.17 1.3799-.25 2.3799-.2.5.02 1.0602.08 1.6802.18.63.12 1.3298.28 2.0898.49.2-.29.3802-.25 1.1302-.12 2.13-3.58 2.6599-1.36 5.1999-1.37 2.18-.02 2.9001-1.14 4.0901-1.95 1.18-.76 2.87-1.26 6.74.11-.18-.33-.26-.27.25-.23l-.1702.26c.24.09.47.18.73.28 2.18 0 3.1001-.99 4.3501-1.64 1.24-.65 2.87-.85 6.23.67 1.76-1.59 3.09-1.75 3.79.71 1.22-1.22.71-1.2 2.29-.53 2.29-2.12 2.69-.61 4.32.13.23 0 .47-.02.66 0 .17.12.37.21.64.23.08 0 .14-.01.22-.02.04.02.06.04.09.06 1.27-.19 3.37-.68 5.39-.8 1.01-.05 2-.03 2.83.26.83.3 1.5.79 1.88 1.59 2.08 1.52 2.81 2.32 3.28 2.72.84-1.11 3.48-1.55 4.92-.59.7-.41 1.4-.61 1.99-.54.59.09 1.06.46 1.31 1.15.16 0 .38.01.7 0 .2 1.05.38.96-.52.97 0 .18.04.33.03.54 2.96-.44 1.18 1.38 4.5-.58 1 .77 1.44 1.22 1.68 1.45.25.04.46.11.67.17.22-.04.58-.09 1.24-.07 3.42.07 4.15 1.47 3.72 3.01.78.07 1.2.36 1.82.92 1.29.2.85.29 1.14.85.4.08.84.14 1.3.25 1.66-1.15 4.87-1.62 4.69 1.18.29.08.55.14.85.22-.74 2.67-.43.47 1.75 2.34.76-.47 2.11-.48 3.28-.08.58.2 1.12.51 1.5.91.36.41.57.92.53 1.51.79.27 1.48.5 2.06.73.1-.77.08-.54 1.09-.27-.05.37-.05.6-.08.74.99.5 1.63 1.15 2.2 2.28.33.1.7.22 1.14.36 3.75 1.11 3.47 2.88 2.09 4.51 5.46.94 5.15.79 4.31 1.78 2.93 1.22 4.48 1.92 5.36 2.72.62.3 1.29.62 2.01.97-1.32 2.51-.49.3 1.26 2.6 1.2-.32 4.09.9 4.13 2.48 3.11 1.33 4.16 1.73 4.94 4.54 2.54 1.22 2.87.98 2.09 2.27.23.13.37.7.4.94 1.58.22 1.69.34 1.37.76 3.45.44 3.15.41 2.43 1.31 2.58.89 3.96 1.33 4.82 1.96.6.06 1.23.02 1.89-.09.79 1.7 1.39 2.98 1.85 3.98 2.25.49 3.45.81 4.23 1.34.79.47 1.14 1.15 1.67 2.4.59.05 1.48.38 2.92.54.73-.48 1.43-.89 1.75-1.02.35.52.9 1.56 1.58 2.52.33-.02.37.11.27.38.26.36.52.71.8 1.06.44-.14.92-.17 1.45-.16.26.01.54.02.83.04.29 0 .59-.02.9-.03.34-1.9 1.83-2.36 4.16-1.28l.13-.09c.08.08.14.14.21.22.07.02.12.05.19.07v.12l2.29 2.29c.75-.5.92-.18.98.89.39.32.71.59.97.8 1.87-1.06 2.4-1.4 2.57-1.22.16.17-.09.9.06 1.95.68-.08.23-.1.64 1.7.35-.89.79-1.64 1.34-2.2-.67-1.79-.15-2.81.64-3.29.4-.24.88-.33 1.36-.35.48-.05.96.02 1.35.17.04-.06.09-.14.12-.19.48.3 1.24.77 2.1 1.3.88.51 1.9.96 2.87 1.35-.47-.95-.52-1.75-.21-2.34.15-.3.39-.54.72-.73.33-.18.74-.32 1.24-.45.18-.53.59-.94 1.23-1.21.64-.3 1.51-.35 2.63-.45 1.78 3.28 1.21 2.65 2.44 3.02 1.4-4 1.54-2.57 3.26.4 2.08-.9.81-1.2 2.32.85 0-.1 0-.19.01-.28-.01-.24 0-.46.03-.65.23-2.44 1.4-2.65 2.06-2.87.07-.03.13-.03.2-.05.06-.2.08-.41.16-.59-1.74-1.69-1.17-3.07-.09-3.85 1.08-.78 2.74-1.13 3.28-.51 2.71.29 4.45.32 5.57.38-1.36-.98-1.8-2.01-1.41-2.94.19-.46.6-.9 1.21-1.29.61-.41 1.43-.81 2.45-1.15 3.28 3.32 1.48 2.63 1.76 3.99-.27-.07-.13.01-.11-.38-.52.97-.59.88.04.43 0 .2.6.9.87 1-.42-2.7 1.17-5.61 2.23-4.71.41-1.31.79-1.95 1.22-2.19.1-.26.19-.5.32-.78.46.46.88.87 1.29 1.28.48.38 1.02.89 1.68 1.45.05.04.09.07.14.11.33-.5.97-.67 1.72-.45-.4-1.95-.1-2.94.37-3.51.04-.06.09-.12.14-.17l.03-.03s.09-.08.14-.11c.29-.24.6-.39.83-.53.85-.5 1.15-.13 1.32.66.62.23 1.38.61 2.3 1.16.15-.47.38-.97.71-1.5.34.15.63.28.91.41.11-.17.32-.45.9-.89-.93-1.88-1.04-4.01.83-6.28 1.28-.23 3.22 1.86 4.41 2.53.38-.07.75-.32 1.04-.94v-.18c-2.31-1.95-1-4.56 1.72-4.86.49-2.13 1.04-2.79 1.83-2.68.88-3.27 1.83-2.84 3.56-1.52.19-1.95.75-3.71 3.06-2.1.05-1.21.57-2.11 2.58-1.54.44-1.47 2.16-2.72 4.84-2.02-.47-1.61-.25-3.41 1.43-5.35.69-.14 1.53.35 2.35.95.65-3.4 1.53-3.19 2.32-2.65.45-.95 1.57-1.69 2.99-1.82.98-3.26 1.93-3.14 3.51-1.93.15-.04.31-.05.5-.02.38-1.59.77-2.84 1.85-2.61.16-.36.33-.68.5-.97.28-.74.73-1.24 1.36-1.28.29-.08.57 0 .84.2.53.25 1.17.75 1.93 1.59.62-.09 1.37 0 2.14.17-.79-.83-.8-2.02-.2-3 .61-.96 1.87-1.69 3.5-1.6.09-1.6 1.16-2.07 2.33-2.02.74-1.74 2.21-3.27 3.81-1.71.3-.83.68-1.67 1.27-2.06 1.36-1.67 2.1.51 2.93.58.32-.8.92-1.33 2.04-1.09.14-.2.29-.4.51-.55.32-.19.67-.38 1.03-.52.26-.1.52-.17.79-.24.27-.07.54-.15.82-.19.14-.02.27-.02.41-.02-.12-.41.42-.92 1.13-.86.33-.47.69-.89 1.05-1.23.54-.83 1.14-1.27 1.88-.96 1.98-2.4 3.87-2.81 3.95.64.07-.04.16-.03.23-.06 0-.19-.02-.42-.07-.74 1.46-.19 2.44-.09 3.06.05.27-1.12 1.43-1.92 2.89-2.08.49-.25 1.08-.29 1.73-.08.58-1.83 2.09-1.89 3.36-1.46 1.28.43 2.33 1.35 2.21 1.45.37.37 1.14-1.05 2.21-2.23 1.05-1.18 2.41-2.13 3.65-.77.08.07.14.17.2.27.19.26.38.58.56.97 1.13.09 1.92.25 2.47.41.14-.21.32-.4.57-.54.24-.19.52-.32.85-.4l.08-.02c.24-.04.49-.08.73-.11h.22c.24.01.49.02.74.05.05 0 .1.01.15.02l.07.02.66.18.11.04h.03c2.21-2.18 5.97-3.28 5.36-.3.14.13.24.24.35.36.94.2 1.65.35 2.17.53.46-.22.74.09 1.04-1.38 5.5 1.5 2.92 2.74 3.32 3.79.08-.04.16-.08.25-.13.34-2.04 1.35-3.28 2.53-3.48 1.16-.16 2.46.72 3.31 2.8.29-.45.72-.79 1.25-1.06.12-.2.41-.33.73-.32.47-.14.99-.2 1.52-.21.51.01 1.03.08 1.52.17.19.03.34.12.5.18 2.48-1.23 5.36-1.31 4.08 1.43-1.02 2.23-1.03 3.13.26-.38 2.75 1.23 3.38 1.56 2.88 3.13-.09.58-.41 1.33-.91 2.49-.03 0-.05-.01-.09-.02.02.14.03.28.05.42.39-.24.82-.38 1.3-.34 1.56-1.4 2.62-2.23 3.31-2.64 1.9-3.78 4.73.17 4.8-.06 1.63.83 2.46 1.3 2.72 1.91.26.6-.05 1.33-.75 2.71.36.04.73.08 1.15.13.26.03.51.08.75.14.95-.36 2.21-.7 3.98-1.06.18.72 1.97 2.44 2.77 4.45.36.08.76.17 1.21.27 5.01-3.75 5.49-3.42 4.78-1.64-.06.18-.13.39-.23.63 1.17-.35 2.19-.08 3.17.48.21-.39.46-.84.74-1.36 2.46 1.61 2.94 1.99 2.1 3.62.43.38.88.76 1.35 1.13 4.66-3.1 3.63-1.39 2.3 1.41.88.39 1.85.64 2.97.64.23.39.38.77.5 1.16.52.12 1.18.26 2 .42 0-.09-.01-.19-.02-.31 1.77-1.02 3.55-.4 5.11.67.29-.05.56-.09.89-.14.05.32.07.61.09.88 2.26 1.92 3.8 4.37 3.74 2.88.81-.46 1.52-.62 2.19-.61 2.67-1.66 2.72-1.11 2.03.4 4.3-1.17 5.93 5.97 11.79 5.83.28.5.46.99.59 1.49.93.15 1.39.39 1.61.45 0-.1-.01-.19-.02-.3.07-.04.13-.06.2-.1 0-.1-.01-.22-.02-.37 2.36-1.49 4.77.1 6.61 1.73 1.83 1.65 3.08 3.33 2.97 2.02 3.87-2.63 5.89 1.99 9.66 3.79.35.09.7.22 1.05.42.74.22 1.53.35 2.42.27.7 1.06.92 2.14 1.03 3.25.07.06.14.1.2.17.64-.44 1.57-.63 2.45-.48.52-.27 1.08-.44 1.66-.47-.04-.29-.08-.61-.13-1.03 2.38-1.76 4.11-.65 6.05.88 1.93 1.53 4.11 3.34 7.23 2.89.64.89 1.7 0 1.04 2.38 0 .04.01.07.02.1.61.09 1.18.33 1.63.8.15-.17.32-.34.52-.51 1.5-1.46 3.79-1.69 5.92.36-.09.14-.14.27-.22.41.04.03.07.06.11.09-.2.33-1.55 2.64-1.09 2.83.11-.29.31-.55.57-.77.72-.89 1.57-1.04 2.32-.71.32.02.64.09.95.21.58-.36 1.33-.55 2.08-.49 1.41-.9 3.24-1.07 5.21.7-2.82 4.91-1.13 5.61.42 7.25.09-.25.17-.47.25-.71-.87-1.27-.2-3.28 1.55-4.09.74-1.48 1.62-2.24 3.22-1.51-.03.49-.09.64.06-.03.27.26.48.51.67.75 1.43-1.09 2.69-.7 1.18 2.29.16.23.32.48.48.77v-.03s.02-.05.02-.09c0-.9.82-1.63 1.84-1.93 1.02-.31 2.24-.2 3.05.65 1.37-1.64 3.52-2.4 6.05-.44-.16.35-1.27 2.78-.79 2.93.57-2.1 5.49-3.14 5.73 1.61.21.12.41.26.58.46.14.16.24.3.32.41.37-.26.79-.47 1.26-.61 1.53-1.01.54-.66 2.01 3.19.23-.08.55-1.02 1.88-1.51-.6-1.7.76-4.21 3.7-4.21l.03-.02c.21.17 1.78-.27 3.52 2.28.12-.8.89-1.52 1.82-1.86l.44.04c.25.01.49-.09.68-.24 1.15 0 2.29.67 2.74 2.47.73-.34 2.22-.33 4.96.18.36-1.82 1.01-3.41 2.75-2.67 1.51.61 1.56 1.63 1.1 2.73.66-.2 1.42-.11 2.01.44 1.15 1.09.28 1.09 2.3-.53 2.24 4.76 1.04 2.92 2.79 1.55-.53-1.19-.25-1.95 1.67-2.09-.7-1.8 1-6.31 3.68-1 .31-1.28.91-2.19 2.29-1.76 2.98.92.72 3.91-.22 5.64.59.12 1.04.18 1.44.22.31-.68.72-1.23 1.21-1.64-.43-.94-.73-1.96 1.61-2.2-.04-1.51.34-2.33.92-2.52l.14-.05c.51-.06 1.15.36 1.83 1.25.21-.02.44-.04.68-.05.24-1.24.79-2.1 2.15-1.73.14.03.48-1.33 1.38-1.29.29-.13.64-.16 1.09-.05 1.32.3 1.67 1.09 1.59 2.02 2.22-1.48.31-.23 4.87 3.16.34-.51.8-1.03 1.4-1.57-1.21-4.44-.43-6.6 1.64-4.74 0-.89.3-1.77.91-1.97.6-.22 1.52.21 2.84 1.97.05-1.13.38-2.02 1.36-2.11.02-.28 0-.67-.1-1.24.42.37.94.93 1.39 1.47.63.28.92.76 1 1.34.02.04.05.09.06.12.03-1.6.97-1.98 2.35-.86-.31-2.02.43-2.78 1.73-2.01.31-.2.72.03 1.51.69-.03-1.33.3-2.38 1.72-2.3.25 0 .15-3.62 3.74.24 1.3-1.24 1.24-1.38 1.84-.76-.09-.24-.18-.49-.28-.77.47.06.95.07 1.43.04.66.85 1.04 1.73 1.22 2.58.4.24.85.48 1.4.73.23-.55.57-1.15 1.05-1.77l-.06-.14c-1.24-2.48-1.57-4.27-1.11-4.93.47-.66 1.7-.27 3.76 1.64.46-.17 1.02-.34 1.63-.52-.11-.45-.37-1.01-.69-1.7.13-.07.24-.16.31-.3.07-.15.18-.28.26-.43.08.07.14.14.22.21.02-1.15.83-.74.78-1.64l.15-.18.46-.55c.9.65 1.82 1.44 1.96 1.67-.31-1.5.45-2.03 1.86-1.39.29-.1.64-.04 1.02.1.36-3.37.07-2.92 4.61-.65-.06-.2-.23-1.22-.01-1.08.15-.63-1.21-.91-1.06-2.92.2-2.81 2.77-.54 5.23 1.06-.04-.41 0-.85.13-1.32.12-.41-.2-.98-.67-1.71h.01c.07-.06.14-.1.19-.18l.48-.77c.34.25.64.51.92.78 2.26 1.8 1.16 3.65 3.17 4.33-.1-.61-.24-1.64.61-3.52-.12-.06-.23-.1-.35-.16 0-.16.01-.3.02-.44-1.18-1.64-2.15-3.81-.19-3.83.38-1.82 3.45 1.43 3.96-.31.13-.45-.23-1.02-.76-1.74.29-.3.55-.64.8-.98 1.8 1.1 2.61 2.66 2.85 4.11l.06.04c.4-.22.8-.41 1.22-.56-.67-1.67-3.32-1.91.22-5.81.02-.44.12-.76.28-.99.33-.07.67-.15.99-.26.17-.05.32-.15.49-.21 1.83.25 4.39 2.1 4 1.23 1.32.84-.21 1.75 2.9 2.26-.14-2.08.9-3.05 2.13-3.15-.48-.67-.74-1.3-.44-1.87.8-1.53 1.59-1.53 2.22-1.11-.56-.98-.89-2.36-.44-3.43.18-.44-.11-1.01-.56-1.72l.28-.35c.41-.2.89-.31 1.38-.39 2.45 1.94.5 4.14 3.64 4.53-.04.14-.07.24-.11.36.13.02.24.04.39.06-.29.9-.43.97.2 1.6.14-.26.29-.55.49-.9.03-2.03 1.21-2.93 2.44-2.98-.18-.29-.33-.58-.4-.85-.81-.35-1.75-.77-2.9-1.34.56-2.84.67-4.19 1.25-4.56.58-.36 1.74.26 4.5 1.42.07-.09.15-.18.28-.31.04-.03.07-.06.1-.09-.34-.62-.07-1 .3-.27.15-.11.31-.21.5-.31.42-.22.95-.36 1.4-.37.95-.03 1.76.39 2.08 1.1.22.48.19 1.07-.02 1.62.5.04.99.15 1.39.38-.03-.12-.08-.22-.1-.35-.06-.35-.04-.77.09-1.13.18-.49.35-.84.79-1.23.23-.24.51-.42.84-.55.22-.07.44-.14.66-.2.17-.01.35-.05.52-.08l.13-.05.24-.16c.13-.12.25-.24.36-.37.14-.2.26-.41.38-.62.09-.23.16-.48.22-.71.04-.52 0-1.02.2-1.56.25-.7.81-1.34 1.56-1.78.77-.42 1.7-.65 2.63-.55 1.54.21 2.14 1.32 1.67 2.41-.14.32-.4.6-.71.84 0 .06-.01.12-.02.19-.09.44-.2.9-.38 1.33-.22.54-.54 1.06-.9 1.56.75 1.28.7.4 1.06-.7.34-1.1 1.2-2.42 3.48-1.85-.02-.1-.05-.2-.06-.29-.23-.9-.21-1.66.49-2.11.98-.65 1.72-.8 2.24-.69.52.1.82.45 1.01.86.38.82.36 1.86.79 1.64-.13.39-.22.71-.29.99.01.39 0 .8-.01 1.23.35.26 1.46-.7 2.96-1.47-.36 0-.81-.31-2.18-.9 2.24-2.21 1.44-2.11 4.07-.28-.86.56-1.07.57-.9 1.3.16.73.72 2.18 1.2 5.64 1.86.37 2.9.16 3.55-.43.64-.6.86-1.61.91-2.73.13-2.23-.6-4.91 1.22-5.32 1.37-.32 2.24-.02 2.71.48.47.52.53 1.33.35 2.26-.37 1.87-1.63 4.3-2.55 6.09h.28c.17.48.25.42-.5.42-.6 1.14-1.04 1.93-1.1 1.96-.2.46-.77.57-1.54.48-.77-.13-1.77-.39-2.85-.77-2.15-.7-4.76-1.55-6.08-2.09-.15 1.32-.25 2.4-.26 3.04h.12c-.05.08-.09.12-.12.12v.15c.03.04.06.07.11.12.19-1.06.97-1.37 1.85-1.42.89.02 1.86.26 2.53.33.48.42.52.88.47 1.34.07.49-.09 1.01-.13 1.5v.02c.32 1.66.62 2.14.97 2.21.35.08.76-.22 1.19-.16 2.74.48 1.42 3.68.31 5.48-.57.9-1.15 1.56-1.54 1.28-.39-.25-.68-1.35-.55-3.91l-.03-.07Zm-550.46 50.3c-.04-.11-.09-.24-.13-.36-.78.73-1.29.94-1.67.95.12.05.2.08.3.12.37-.12.87-.35 1.5-.7v-.01Zm10.36 7.21c-.24 0-.43-.06-.6-.12-.02.01-.05.02-.08.04.23.05.45.09.65.13l.03-.05Zm122.37-46.1c-.28-.28-.56-.57-.86-.87.13.31.18.55.18.76.22 0 .45.05.69.11h-.01Zm29.8-12.23c-.14.66.04 1.3.44 1.88.43-1.4 1.54-.71-.44-1.88Zm14.8 7.32c-.59-.18-1.05-.27-1.42-.35-1 1.99-2.23 2.88-3.4 3.43-.23.29-.49.6-.79.93.57-.13 1.23-.37 1.93-.72.7-.36 1.42-.92 2.12-1.83 1.03-1.35 1.75-1.3 1.57-1.46h-.01Zm25.77-3.51c-.27-.12-.57-.22-.89-.3-.92.3-1.85.45-2.75.38-.55.45-1.31.95-2.43 1.47.53.09 1.17.15 1.88.07.08-.05.16-.09.24-.14.82-.55 1.69-.81 2.49-.87l.06-.03c.59-.4 1.06-.51 1.39-.59l.01.01Zm9.77-12.05c-.5-.02-.93-.02-1.28.03-.46.44-.84.75-1.16.97-.03.14-.03.31-.03.5.24 0 .52.1.84.3.78-.62 1.31-1.22 1.63-1.8Zm-.66 14.9-.03-.03v.02h.03v.01Zm12.61-10.1.44.09c.04-.11.07-.19.11-.29-.17.06-.35.13-.55.2Zm-1.48 12.51c-.11-.03-.26-.13-.4-.21V53c.13.02.27.03.41.05l-.01-.01Zm3.43-1.54c-2.48-.72-2.57-.93-2.12-1.28-.26-.2-.25-.44.15-.77-.55-.67-.93-1.43-.93-2.23-.49.32-.93.61-1.34.88-.3.56-.8 1.12-1.44 1.59-.21 1.05.97 1.37 1.56 2.08 1.17-.62 1.48-.03 1.37.82 1.27-.54 2.19-.88 2.76-1.07l-.01-.02Zm15.52 7.17c-.58-2-.51-2.92-.11-3.24-.05-.08-.11-.17-.16-.26-.59-.04-1.21-.08-1.85-.17-.2 2.55-1.83 3.29 2.12 3.67Zm4.84.02c-.17-.37-.33-.75-.45-1.12-.24-.12-.42-.31-.59-.53-.1.03-.2.06-.29.09.22.18.4.31.48.35-.34 1.08.07 1.07.84 1.21h.01Zm9.12-9.2c-.17-.11-.3-.19-.43-.26-.09.02-.21.05-.32.07.15.26.2.54.21.8.22-.26.41-.47.54-.62v.01Zm9.95 14.42c.21-.14.39-.22.55-.26-.24-.05-.46-.09-.66-.11.04.12.08.24.11.37Zm2.43.26c-.47-.17-.9-.3-1.28-.4 0 .19-.29.47-1.06.58.04.4.02.79-.04 1.18.7-.29 1.5-.7 2.39-1.37l-.01.01Zm25.81 10.8c-.54-.08-.87-.13-1.07-.15-.13.07-.25.14-.36.23-.03.22-.06.62-.44 1.3.8-.34.72-.43 1.87-1.38Zm44.29 11.88c-.19-.51-.46-1.09-.81-1.8-.62-.59-1.13-.87-1.57.08.9.02 1.91 1.13 2.38 1.73v-.01Zm7.04 9.37c-.02-.11-.06-.2-.08-.32 0 0-1.2.79-1.26.8.04.11.06.2.1.3.59-.12 1.07-.33 1.24-.78Zm20.53 2.17c-.53-2.37.63-1.65-1.31-2.57.01.47.13 1 .43 1.64.18.37.28.73.36 1.09.18-.05.36-.11.52-.16Zm9.72-11.26c.25 1.35.45 2.17.52 2.77 0-.92.06-1.88.17-2.83-.99-.14-.83-.66-.69.07v-.01Zm.52 4.07v-.72c-.02.2-.07.38-.17.56.06.05.11.1.17.16Zm18.16 4.68c-.11-.34-.22-.69-.29-.98-.25 0-.51-.02-.77-.07l-.8-.16c.87.41 1.47.81 1.87 1.21h-.01Zm9.82 1.53s-.1-.06-.14-.1v.09c.05 0 .09.01.14.01Zm32.8-13.84c-.13-.11-.25-.21-.37-.32-.06.12 0 .2.37.32Zm-3.43-3.46h.03l-.02-.03v.02l-.01.01Zm9.23 16.39c-.13-.31-.18-.64-.14-.99-1.33.95-2.28 1.42-5.26-.94 0 .28-.01.55-.02.81.65 1.72-.52 4.66-2.36 3.47-.07.29.55.61.91.94.95-.15 2.56-.64 5.22-1.26.44-.61 1.01-1.26 1.65-2.03Zm13.9-14.6c-.6-.41-1.82-1.18-2.79-1.61l-.04.02c.9 1.31 1.44 2.03 1.78 2.38.21 0 .41.04.61.1.11-.19.23-.53.44-.9v.01Zm6.14 2.42c.11.13.22.25.34.4-.08-.74 0-.85-.34-.4Zm.14-7.57c-.4-.19-.81-.4-1.2-.61.12.3.45.53 1.2.63v-.02Zm4.91 9.8c.12-.18.25-.38.4-.6-.19-.09-.36-.18-.57-.28.06.27.12.56.16.88h.01Zm12.9-17.92c.21.14.51.5 1.07 1.34.14.2.33.34.54.46.1-.31.35-.65.77-1.02-1-.33-1.76-.58-2.38-.79v.01Zm-1.42-.22c.66.32.9.15 1.13.13-.36-.11-.67-.21-.93-.28-.08.04-.17.07-.2.15Zm-2.36 6.19c.07-.16.12-.29.2-.47-.11-.1-.24-.19-.36-.29.06.22.11.48.16.76Zm7.41-2.51s.02.07.02.11c.11 1.7-1.55 1.71-2.41 2.51-.42.39-.8 1.45-1.23 2.12-.45.64-.95.91-1.57-.23-.05.42-.12.87-.2 1.32.59.52 1.19.98 1.75 1.4 1.15-2.3 1.46-3.21 1.74-3.16.27.04.44.96 1.11 2.13.63-1.15 1.38-1.84 2.15-2.23-.11-2.05.01-3.23-1.35-3.97h-.01Zm2.92-1.3c-.32-.09-.57-.27-.8-.49-.22.06-.46.09-.71.07.6.68 1.2 1.26 1.81 1.78-.1-.6-.2-1.03-.3-1.36Zm-1.18-8.59c-.52-.2-1.02-.41-1.45-.66.21.38.43.81.63 1.24.23-.28.5-.48.82-.58Zm4 2.71c-.1-.09-.24-.18-.32-.28.05.18.08.36.09.53.08-.08.16-.16.23-.25Zm5.77 1.23-.44.32s-.02.02-.03.04l-.02.02c-.03.06-.1.17-.13.23-.05.18-.09.36-.13.54v.29c-.02.18-.02.37-.01.55 0 .37.04.74.07 1.11.04.54.06.77.16 1.21.03.12.07.23.1.35.11.08.22.15.35.24h.01c.21-.56.47-1.27.89-2.43-.42-.23-.76-.6-.93-1.05-.17-.47-.08-.95.12-1.4l-.01-.02Zm5.66 6.67s-.04.08-.07.13c-.05.08-.12.15-.17.23.03.1.04.22.06.33.16.22.28.36.32.36-.05-.37-.1-.72-.14-1.04v-.01Zm2.95-12.55c-.16 0-.38.03-.57.06.18.11.36.26.54.37.01-.06.03-.12.06-.2-.01-.07-.03-.15-.03-.22v-.01Zm5.1-5.75c-1.23.2-2.29.22-3.18.11.36.36.74.72 1.16 1.14h-.9c.56.18 1.1.47 1.52.86.36-.06.72-.03 1.06.1.69.26 1.1.86 1.19 1.57.13-.12.27-.24.42-.34-.35-1.69-.42-2.81-1.27-3.46v.02Zm8.37-.29c-2.2-.88-4.66-1.31-5.5-.19 1.23.83 2.4 1.46 3.39 1.99.13-.09.26-.18.41-.26.47-.25.96-.52 1.45-.79.02-.07.04-.13.04-.13l.11-.42c.02-.08.07-.14.1-.22v.02Zm-4.24-12.24c.19.2.34.29.43.13.05.2.09.37.14.53.49-.15 1.06-.11 1.63.15.15-.35.33-.73.52-1.11-.26.15-.75.08-2.02.12v-.06c-.2.25-.45.31-.71.23l.01.01Zm10.46 5.33c-.21-.03-.42-.06-.64-.06-.13 0-.26-.04-.4-.07-1.46.46-3.14.83-4.53 1.06.09.74.07 1.26.04 1.66.73-.73 2.12-1.03 2.89-1.43 1.3.2 1.17 1.54 1.83 2.22.19.2.34.33.5.47.1-1.14.18-2.39.23-3.55 0-.1.05-.2.07-.3h.01Zm-.91-5.44c-.04.46 0 .84.14 1.17.04-.02.06-.03.1-.04 0-.36-.08-.74-.24-1.12v-.01Zm17.32-3.41c-.76.04-1.49.03-2.17.02-.05.06-.11.1-.16.17-.12-.07-.21-.12-.31-.17-1.03-.03-1.96-.13-2.78-.24-.41.35-.85.64-1.34.91-.1.05-.21.09-.31.14.48.59.75 1.29.58 1.99 1.37.09 2.65.67 3.65 1.49.05-.09.08-.19.14-.27.66-1 1.73-1.78 2.95-2.02-.17-.21-.3-.45-.39-.71-.14-.42-.04-.87.14-1.29v-.02Z"/>
  <path fill="#000" d="M149.99 40.3099c-.49-.27-.33-.3-.33.19l.33-.19ZM706.9 110.86l.06-.03c-.12-.1-.15-.1-.06.03Z"/>
  <path fill="#000" d="M703.96 110.41c.74.56 1.34 1.47 2.22 1.8.46-.3 1.64 0 .64-1.48.54.83-1.54-2.07-4.51-3.91-1.24-.77-3.17-1.37-1.78-.07-.2-.19-.39-.37-.6-.57-.11.07-.34.13-.26.25 2.75 3.8 1.6 1.94 4.29 3.98Zm-.27-7.76c-1.45-1.12-3.32-2.71-3.19-1.93.15.91 2.15 2.77 3.19 1.93Zm38.13-41.98c-.09-.35-.35-.8-.63-1.4-1.96-.44.82 2.09.63 1.4Zm-15.74 46.2c1.78 1.88 1.39.99 0 0Zm34.8-31.1801c1.47 1.38.28-.73-.12-1.55-.64-.11-2.29-.71.12 1.55Zm-65.33-60.9598c-.18-.05-.15-.14-.03.3l.03-.3Zm5.77-.8801c-.18-.05-.15-.1401-.03.2999l.03-.2999Zm9.93 91.73c.54 1.09.23.76 1.34 1.28-.65-1.08-.36-.81-1.34-1.28Zm51.8-68.3001c-1.39-.22-.04.07 0 .05.02-.01.01-.03 0-.05Zm-.73 1.1802c-1.07-.49-.06.08-.02.07.03-.01.02-.04.02-.07Zm-56.55-26.1902c-.18-.06-.15-.14-.03.3l.03-.3ZM763.93 6.94c-.06.11-.15.29-.29.49.07.2.01.13.29-.49Zm-48.76 4.0699c-.18-.06-.15-.14-.03.3l.03-.3Zm64.2-4.8499c-.12.12-.3.2899-.53.4899-.04.2-.06.14.53-.49Zm-73.33 96.42c-.07-.12-.15-.18 0 0Z"/>
  <path fill="#000" d="M702.59 104.61c-.24-.33-.53-.73-.89-1.23-.08-.11.15-.17.26-.25.13.12.24.23.36.35h.02c-.86-.97.84-.42 1.99.3.24.15.47.32.7.48.3-.02-1.63-1.99-3.06-3.26-1.23-3.44 1.85-1.3201 3.2.86.23.18.44.38.62.57.17.19.29.36.39.52v-.03l-.05-.16-.09-.17s.02 0 .03.03c-.05-.06-.09-.13-.12-.19-.15-.23-.29-.47-.44-.7-.45-.75-.58-1.37-.24-1.61-.54-.09-1.11-.48-1.55-.91-.61-.47-1.1-1.12-1.17-1.56-.09-.54.78.06 1.79.86-.45-.72-.76-1.45-.77-2.06 2.54 2.2 2.81 2.43 3.02 2.49-.19-.27-.4-.57-.66-.93-.08-.12.16-.17.26-.24.21.2.4.39.59.58-1.37-1.33.54-.7 1.77.09.13.09.25.17.37.26-.13-.24-.25-.47-.31-.68l-.11-.11c-.14-.13-.29-.26-.43-.4-1.27-1.21-1.9-2.07-2.11-2.65-.44-.76-.51-1.23.11-.92.42-.4 1.39-.27 1.7-.05v-.22c-.51-.45-.89-.99-.94-1.37-.06-.39.36-.18.98.26.05-.3.14-.56.26-.77-.27-1.47.77-1.12 1.85-.15.46.33.99.86 1.58 1.68 1.11.69 1.69 1.05 2.11 1.31-1.03-.66-2.28-2.17-3.02-3.34-1.16-.86-1.91-2.4-.52-1.53.11 0 .31.1.6.32-.41-.7-.69-1.41-.69-1.99.7.62 1.21 1.08 1.6 1.43.35-.04.8.12 1.15.39-.2-.25-.39-.51-.57-.78-.19-1.67-.1-2.41.25-2.56-.54-1.49 1.36-1.32 1.82-.99-.01-.15-.02-.29-.02-.43-.04-.14-.1-.28-.13-.43.05.04.1.06.14.08.13-2.04 1.49-2.97 3.76.27.31.2.54.35.78.5-.21-.3-.35-.57-.42-.82-1.66-1.99-2.87-4.52-.71-2.57-.2-.8.3-1.01.86-.88.16-.34.24-.86.03-1.82.04.03.07.05.11.07.01-2.46 1.25-.91 3.74 1.24.02.05.04.09.06.14.63.22 1.22.66 1.72 1.2.21.19.4.38.58.6-.04-.24-.06-.44-.02-.58-1.96-1.83-3.52-3.3-4.01-5.63 1.11.78-.05-1.79 1.77-.44.06-.01.12 0 .19 0-.33-.61-.69-1.28-.84-2.13-.11-.59 1.22-.79 3.11 2.53-.04-.32.06-.58.4-.71-1.4-2.12-.41-1.79-.09-2.78 0-.07-.02-.15-.04-.27.04.02.06.04.09.06.07-.33.07-.78-.06-1.44.84.61.28-.32 1.73.89-.13-.26-.15-.46-.03-.57.12-.11.37-.07.67.09-.34-.85-1.02-1.72-1.23-2.98-.07-.41.53-.62 1.51.34-.01-.07-.02-.17-.05-.34.92.67.7.4.81 1.06-.14-.11-.25-.19-.34-.26.17.2.34.45.53.72-.24-.99.52-1.1 1.2-.78-.13-1.09-1.14-2.08-1.4-3.68-.07-.43.6-.64 1.66.52.53.46 1.19 1.31 1.92 2.7.26-.07.52-.08.77-.06-.97-1.1-1.82-2.15-1.46-2.46.38-.33 1.98.69 2.43 2.74.78.38 1.47 1.09 1.96 1.85-.17-.39-.32-.81-.45-1.22-.03-.03-.05-.05-.08-.07-2.46-2.99-1.55-2.63-.52-2.01-.11-.37-.23-.71-.37-1.01.76.57 1.33 1.03 1.82 1.44.5-.25 1.21.16 2.22 1.16.12-.05.24-.1.37-.14-.67-.86-1.25-1.47-2.27-1.83.02.31.1.35-.3-.11l-.04-.02v.02l-.02-.03c-2.08-.79-1.48-1.02-1.9-2.23-.47-.6-.74-1.09-.63-1.34-.22-.49-.46-1.11-.54-1.63-.03-.2.1-.34.34-.33-.12-.32-.22-.66-.28-1.04-.11-.75 1.96-.83 4.42 5.7-.08-.03-.13-.05-.21-.08.3.47.75.96 1.47 1.39-.18-.35-.28-.66-.31-.93-1.06-1.75-2.25-3.61-1.32-4.47-.02-.06-.04-.12-.04-.19.02-1.19-1.11-2.22-1.37-3.95-.05-.36.4-.55 1.15.05 0-.73.65-1.11 1.22-.97.84.66 1.04 1.11 1.12 1.6.7.56 1.5 1.75 1.52 3.43-.16-.19-.32-.38-.49-.58.24.53.35 1.03.39 1.36 1.99 1.61.88 1.29 2.43 1.3.12.1.21.17.33.26-.49-.59-.82-1.31-1.07-2.07-.08-.13-.11-.24-.11-.36-.37-1.2-.58-2.43-.97-3.32.17.14.32.25.48.38-.34-.85.22-.16-2.05-2.63.42-.13.77-.25 1.09-.35-.24-.5-.63-1.42-.73-2.13-.08-.56 1.07-.71 2.64 1.98.49.14 1.03.47 1.72 1.02-.17-.34-.32-.66-.43-.97-1.01-.71-1.63-1.34-1.99-1.88 0 .03-.01.07-.02.09-.34-.31-1.49-1.33-.56-.94.1.04.18.08.25.12-.24-.98.54-1.49 1.21-1.32 1.21.96 1.08 1.5 1.17 2.3.09-.11.18-.22.33-.3.4.39.63.61.78.75.06.05.12.09.19.15.03 0-.13-.24-.25-.46-.46-.91.12-1.42 1.43.61-1.09-3.53-3.77-4.89-2.43-4.34-.44-1.14.42-1.73 1.14-1.55.3.24.49.45.65.64.42.39.63.72.72 1.03.59-.04 1.13.11 1.86.6 0-.49.18-.56.2-.66-.09-.26-.22-.38-1.85-2.21 1.12-.35 1.82-.61 2.53-.55-.11-.13-.22-.27-.29-.39 0 .04-.02.08-.02.11-.33-.32-1.47-1.35-.55-.95.11.05.2.1.27.15-.11-.46-.02-.82.19-1.05-.52-1.21.37-1.85 1.11-1.66 1.51 1.25.89 1.76 1.27 3.04.52-1.72 2.5 1.93 1.72.03.45.37.78.65 1.05.88-.03-.05-.04-.07-.07-.13.64.37.56.24.78.7.21.14.38.2.61.23-1.45-1.05-2.51-2.41-3.88-3.98.39-.12.72-.22 1.03-.31-.29-.34-.6-.69-.91-1.06.1-.03-.66-2.33 1.16-1.84.64.53.89.93 1 1.31.59-.03 1.13.13 1.85.62.03-1.17.97.07-1.26-2.52 1.1-.33 1.8-.58 2.49-.52-1.81-1.96-.6-3.05.34-2.79 2.01 1.71.3 2.4 1.79 3.88-.03-.16 0-.27.22-.09.06-.31.27-.73.57-1.01.15-.13.35-.08.77.22.08.04.15.07.23.1-.03-.04-.05-.06-.09-.11.09.07.16.13.23.17.04.02.09.04.12.05-1-.92-1.95-1.93-3.07-3.06 1.1.37 1.35.31 4 2.12-.14-.18-.19-.34-.11-.47-.11-.09-.21-.17-.29-.24v.02c-.05.03-.68-.54-.21-.26-.16-.26-.07-.43.47-.57.2.1.38.18.55.27.66.15 1.33.31 1.96.48-1.42-.62-2.35-1.1-2.05-1.31-.24-.13-.2-.15.16-.07.04-.01.08-.02.13-.04l-.12-.05c1.32.23 1.65.18 2.45.4.7.08 1.14.22 5.16 1.78.14-.01.16-.14.08-.41-3.04-.83-5.99-1.57-3.94-1.48.37 0 1.2.17 1.89.3.15-.01.5 0 1.1.04-3.6-.7-7.03-1.15-5.5-1.52-.8-.15-.62-.16.13-.13-.22-.04-.44-.07-.69-.11 3.85-.03 5.79-.05 7.39-.06v-.06c-1.77-.02-3.16-.06-4.25-.1-4.15-.16-4.78-.21-2.2-.26-.11 0-.22-.01-.33-.02.4-.04.73-.07 1.03-.09-2.45-.13-2.48-.24.96-.78-2.89.27-2.99.27-1.77.08 1.57-.24 3.97-.61 5.99-.91.8-.14 1.53-.27 2.03-.38.43-.09.73-.17.98-.24-.21-.03-.37-.07-.35-.17-.59.1-1.13.2-1.66.29 1.6-.08-.63.47-2.95.79-2.33.33-4.97.62-4.68.45-.31.04-.27.03.12-.06.14-.05.4-.13.78-.25-3.11.49-2.32.31 4.01-1.4l-.15.03c-3.77.94-3.53.87-1.85.41-.31.07-.63.13-.96.2-1.27.32-2.33.59-2.77.68-.44.09-.27.02 1.11-.46-.5.14-.86.24-.98.26-1.83.57-2.95.92-4.72 1.48 1.87-.61 3.46-1.14 5.49-1.8.36-.13.74-.27 1.16-.43 6.38-2.16 4.9-1.64 4.29-1.38.66-.24 2.16-.74 3.7-1.25.76-.25 1.67-.55 2.85-.95.48-.17.88-.31 1.38-.48-1.07.34-2.13.67-3.18 1.01-5.64 1.89-9.23 3.03-10.3 3.37-.59.18-.32.07 1.05-.46 2.72-1.04 4.8-1.84 7.22-2.76-2.66.97-3.42 1.24-2.93 1.03-2.97 1.1-4.46 1.67.32-.26-1.25.46-1.68.61-.45.1 1.25-.51 4.13-1.7 9.74-3.9 2.27-.94 1.78-.75 2.88-1.23-2.3.91-4.82 1.9-7.19 2.83-3.65 1.51-7.21 2.93-8.32 3.37-1.13.43.18-.13 5.72-2.57.82-.37 1.74-.79 2.81-1.27-2.53 1.05-4.35 1.8-5.85 2.42-.39.16-.74.29-1.07.42-.21.08-.29.1-.29.09 0-.05 1.15-.63.35-.27-4.77 2.17-3.6 1.63-.54.08 3.09-1.55 8.11-4.11 11.7-6.01-3.92 1.93-6.62 3.25-8.77 4.3-1.82.88-2.6 1.24-2.68 1.22-3.03 1.5-3.97 2.02.19-.4-2.29 1.23-3.27 1.76-.62.17-2.61 1.41-3.8 2.1-1.52.61-.68.39-1.07.61-1.21.67-.99.57-.92.52 3.81-2.66-1.48.86-1.1.51 1.66-1.4-7.43 4.91-7.26 4.8-5.06 2.95-.57.4-1.22.85-2.59 1.81l-.04.02s-.08.06-.13.09l.03-.02c-.3.19.71-.65 3.9-3.45.28-.27.58-.56.91-.88-.91.73-1.71 1.38-2.41 1.96-.32.26-.61.5-.91.75-1.91 1.58-2.53 2.12-2.35 1.9.18-.22 1.15-1.2 2.55-2.67-1.23 1.07-.94.64 1.35-1.83-.33.14-.2-.15.18-.74-.94.91-1.63 1.73-2.37 2.53-.72.8-1.49 1.6-2.3 2.43-.23.26-.51.59-.94 1.09.2-.28.38-.52.57-.78-.6.75-.19.38 1.35-2.33-.34.44-.42.49-.22.03-.7 1.05-.95 1.42-2.08 3.11.55-1.02.5-.92.17-.34.96-2.07 1.29-3.21 1.49-3.83.18-.62.19-.71.14-.66-.41.37-.52.23-.5-.31-.52.97-.76 1.82-1.06 2.66-.29.84-.64 1.65-1 2.53.06-.27.12-.5.18-.76-.22.82.25-1.85.1-3.7-.2 1.51-.39 2.57-.48 2.75-.11.18-.12-.53-.32-2.54-.08 1.2-.14 1.7-.24 1.74-.14.04-.09-.4-.88-1.01-.12-1.23-.18-1.86-.25-2.4-.11-.42-.22-.98-.32-1.59-.22.65-.43.94-.64.95.81.99 1.27 2.07.92 4.65-.6-.05-1.07-.33-1.43-.75-.16.88-.47.9-.82.47-.1 1.56-.6 1.6-1.16.65-.05.51-.66.5-1.26-.09-.42.04-.54.05-1.13-.49-.03 1.68-.33 3.05-1.87-.84-.03 2.37-.5 2.51-1.44 1.75v.04c-.28-.02-.54-.13-.78-.27 0 .39-.03.81-.09 1.3-.6-.05-1.07-.32-1.44-.73-.29 1.76-1.22.12-1.94-1.66 0 .25-.02.48-.04.68.04.5.02 1.14-.08 2.03-1.83-.14-1.26.54-2.79-.9-.14-1.24-.31-2.64-.44-3.8.02.71-.08 1.3-.43 1.56.01.12.02.22.03.32.22 1.6-.04 2.39-.62.73.07 4.3-1.24 1.45-1.37 2.63-1.27-.08-2.11-1.47-2.7-2.92-.39.06-.74.02-.97-.08.25 2.16-.07 1.5-.6.47.06 3.01-.03 3.85-2.02 2.04-.27-2.03-.34-2.75-.47-3.3-.03.7-.28 1.16-.89 1.26-.05.39-.16.7-.39.87.21 1.58-.1 2.23-.76.2-.06 0-.14-.09-.23-.22-.28.41-.98.16-1.74-.43-.59 1.18-2.24 1.51-2.89 1.2.55 4.24-1.26-2.41-2.39-1.24-.24.25-.48.12-.74-.24.15 1.33-.1 2.15-1.36 2.02-.02-.03-.05-.1-.07-.14-.15.08-.38.07-.71-.04.55 2.79-2.93.26-4-2.09-.03.26-.07.49-.14.68 1.96 4.59-1.69 3.6-2.57-.11h-.12c.06 1.16-.02 1.8-.73.26-.28 1.57-.85.13-1.33-1.62-.27-.51-.34-.86-.52-.35.21.51.3.93.32 1.26.22.72.16 1.31-.63 1.41.9 2.09 1.39 3.73-.97 2.51-2.5-1.29-1.37-6.35-2.39-3.51-.03.57-.05 1.15-.2 1.5-1.46-.27-.99-3.61-1.45.64-.08-.22-.19-.55-.32-.9-.18.03-.34.05-.5.07.07.52 0 .96-.4 1.03-.05.88-.06.66-.35.05-1.78.25-2.37-.95-2.67-1.56-.09.23-.15.37-.2.43.82 2.61-1.93 2.12-3.61-.24-1.38 3.99-.04.77-2.97-.84-.05-.12-.01-.12-.12-.08.59 1.04 1.25 1.56 1.27 3.57-1.5.2666-2.763-.31-3.79-1.73-1.35 3.98-.04.77-2.98-.84-.13-.31-.25-.77-.38-1.32-.57-.21-.89-.46-1.08-.68.78 3.29.89 3.57-.81 1.02.81 3.4.93 3.68-.85 1.01-1.1 1.6-2.07-2.58-2.77-3.39-.12.35-.24.68-.36.96.2.84.38 1.6.52 2.22-.04.1-.08.22-.08.4v.21c-.02.1-.04.19-.05.28-.02.07-.05.13-.07.19-.05.07-.11.14-.17.18-.04.02-.09.04-.13.05-.02 0-.03.03-.04.04-.31-.46-.69-1.02-1.17-1.73-.21.25-.43.3-.67.05-.46 1.06-1.32 1.27-2.48-.03-.28.63-.57.99-.91.77.12.47.22.87.31 1.24v.03l-.05.05c-.02.03-.05.06-.08.09l-.04.04s-.01 0-.02.01l-.04.02c-.06.02-.13 0-.19.03h-.04s-.07-.03-.1-.05l-.11-.06-.03-.02c-.08-.07-.16-.15-.24-.23l-.11-.13-.06-.09c-.14-.2-.27-.24-.37-.14-.64-.93-1.46-2.12-2.51-3.57-.25.8-.52 1.65-.76 2.41l-.1-.03c-.06-.03-.12-.06-.18-.1l-.1-.06c-.12-.1-.23-.2-.35-.32l-.16-.18s-.03-.05-.04-.05c-.02-.03-.05-.06-.05-.07-.11-.15-.21-.32-.32-.5l-.07-.13-.02-.03-.15-.32c-.11-.24-.21-.49-.31-.75-.02-.06-.05-.12-.07-.19v.02c0-.02-.01-.03-.01-.05l-.16-.48c-.12-.37-.28-.63-.44-.65-.12-.02-.21.16-.24.43-.05-.02-.09-.04-.14-.06-.16-.73-.28-1.37-.36-1.9.02-.15.04-.31.07-.46.03-.15.06-.29.09-.44 0-.04.03-.13.03-.14l.06-.21c.08-.29.18-.55.28-.79l.15-.31.04-.07.09-.14c.05-.07.1-.12.16-.18.54.18 1.08.6 1.11.17.24-3.99 1.26-1.24 1.79-2 .58-.81 1.08-.47 1.6.49.18-.28.38-.49.62-.59.24-.1.51-.06.78.07s.55.35.82.69l.08.12c.18-2.33.62-2.21 1.05-1.94.23-4.79 1.55-1.61 2.41.25.07.03.13.06.2.09.24-1.42.5-.6.39-1.65.05-.15.11-.27.17-.4.01-.02.02-.04.03-.05.02-.02.05-.07.06-.08.21-.3.46-.5.71-.65.06-.04.09-.15.11-.28l.08-.11c.11.2.34.77.65 1.37.11.02.2 0 .29-.13.25-.34.49-.47.71-.44.28-2.14.9-1.55 1.51-.38.7-6.19.62-3.15 1.83-2.78 1.65.51.24-4.71 3.93-.22.05-.34.15-.55.28-.64.36-2.37.75-.34 1.54-.09 1.36.43.59-3.55 2.89-1.36.45-2.72.53-.62 1.52-.3.07.02.12.02.18.02.19-.49.39-.96.8-.96.33-1.01.62-2.09 2.8.57.04-.26.11-.18.37.07.43-3.15.78-.86 1.62-.58 1.44.48.55-4.01 3.35-.84-.09-.33-.11-.27.05-.22l-.03.25c.09.1.17.19.26.3 1.39.12.71-3.83 3.21-.96.33-1.62.69-1.94 1.26.46.2-1.3.04-1.24.62-.69.37-2.27.7-.89 1.3-.34.07-.03.13-.08.19-.08.07.09.14.16.22.15.03 0 .04-.03.06-.04.01.01.02.04.04.05.7-.6 2.07-3.51 3.06-.78.85 1 1.21 1.61 1.41 1.89.03-1.28.64-2.44 1.21-1.92.21-1.16.57-1.55.98-.42.04-.05.1-.11.18-.23.26.92.29.77.06 1.08.04.17.07.3.12.5.67-1.4.6.91 1.02-2.03.41.34.61.57.72.7.07-.06.14-.08.2-.1.04-.12.12-.3.28-.53.84-1.21 1.3-.35 1.56 1.22.2-.28.36-.2.63.03.34-.39.26-.11.46.26l.36-.36c.1-1.81.66-3.78 1.3-1.27.08-.08.15-.14.23-.23.5 2.66.03.66.94 1.04.08-1.61 1.08-2.98 1.67-1 .23-.24.42-.46.6-.61-.18-.68-.13-.48.14-.86.09.33.15.52.18.64.32-.16.62-.05 1.04.48.09-.12.19-.26.32-.42 1.01-1.41 1.46.04 1.65 2.19 1.31-2.76 1.2-2.71 1.32-1.41.91-1.01 1.39-1.49 1.8-1.49.21-.19.43-.4.67-.62.47 2.73 0 .55 1 1.08.14-1.04 1.07-2.06 1.55-.92 1.03-1.08 1.36-1.5 2.36.09.91-.75.91-1.15 1.12.33.09-.05.29.28.36.44.42-.84.48-.82.53-.3.92-1.88.85-1.71.94-.56.87-.94 1.36-1.43 1.75-1.48.16-.33.32-.72.47-1.2.69.9 1.22 1.59 1.63 2.12 1.56-1.63 1.79-1.59 2.76.03.2-.23.55-.48 1.09-.93.13-.75.27-1.43.36-1.69.25.35.69.94 1.16 1.59.12-.14.16-.04.19.25l.52.69c.26-.58.69-.85 1.17-1.29-.09-.95-.16-1.65.37-2.08.47-.43 1.28-.58 2.32-.41l.09-.12c.07.06.14.11.21.17.06 0 .1.02.16.03 0 .05.01.07.02.12.84.68 1.46 1.25 1.94 1.71.55-.7.7-.33.72.71.26.27.48.49.65.67 1.38-1.32 1.9-1.76 1.99-1.6.09.16-.2.91-.26 1.96.46-.11.19-.11.11 1.69.38-.92.82-1.7 1.33-2.3-.07-1.78.49-2.84 1.28-3.38.78-.54 1.74-.56 2.24-.24.05-.06.13-.14.17-.19.55.59 1.52 2.03 2.29 3.04.41-2.05 1.54-3.27 3.21-3.34.89-.99 2.26-1.34 3.72-.88-1.52 3.74-1.37 2.95-1.05 3.64 1.96-1.82 2.75-2.35 2.74-1.99 0 .36-.75 1.6-1.7 3.33 1.5-.2 1.36-.91.01 1.59.1-.1.17-.18.26-.27.21-.24.41-.45.59-.62 2.33-2.35 2.92-2.07 3.3-2.03.05 0 .07.02.1.03.21-.17.43-.36.63-.5 1.16-2.28 2.72-3.4 3.99-3.74 1.26-.34 2.09.08 1.52.88.34 1.42.34 2.34.36 2.92 1.06-1.54 2.19-2.7 3.38-3.37 1.18-.67 2.41-.84 3.38-.41-4.21 4.65-3.36 3.12-5.03 4.48.09-.2-.01-.06.47-.4-1.17.6-1.06.49-.53.41-.24.18-1.13 1.12-1.27 1.34 3.3-2.66 7.14-4.45 5.82-3.06 1.68-.94 2.54-1.3 2.82-1.28.34-.17.67-.33 1.05-.52-.68.64-1.3 1.24-1.92 1.82-.59.59-1.38 1.33-2.27 2.19-.07.06-.12.11-.18.17.6-.25.7-.05.21.57 2.76-1.92 4.11-2.61 4.83-2.85.08-.03.15-.06.21-.07h.03s.09-.03.13-.03c.28-.05.43 0 .56 0 .5.06-.13.54-1.32 1.32-.52.55-1.3 1.31-2.4 2.3.61-.31 1.26-.61 1.92-.88-.34.32-.64.6-.94.88.2-.08.54-.2.97-.25 3.13-2.13 6.37-4 9.27-4.82-.11.55-4.26 3.46-5.88 4.73-.07.16.14.17.96-.17.1-.05.17-.09.28-.15 2.1-1.5 4.03-2.61 5.39-3.16 1.35-.56 2.1-.57 1.65.12 3.31-1.49 4.2-1.71 3.59-1.15 5.21-2.2 4.02-1.28.67.85 3.31-1.51 6.24-2.64 1.93.07 2.16-.98 3.53-1.42 1.2.24 2.42-.96 3.74-.99.56 1.15 3.41-1.63 6.73-2.99 9.48-3.66-.19.28-1.75 1.17-3.53 2.14 6.41-2.5 5.42-1.82 3.72-.91 1.65-.56 2.43-.57 1.65.12 6.2-2.23 5.36-1.62 1.55.27-.03.05-.12.13-.33.25 3.2-1.17 5.7-2.04 4.4-1.26.68-.22 1.28-.4 1.82-.57 1.45-.48 2.31-.7 1.96-.41-.02.08-.38.29-1.06.61-.96.49-2.56 1.26-5.08 2.4-.25.24-1.04.71-2.02 1.25 2.53-1.14 5.3-2.19 7.16-2.74 1.85-.55 2.78-.6 1.4.27 3.84-1.4 4.21-1.28 3.34-.71 3.87-1.25 6.86-1.98 1.81.16 1.94-.63 3.8-1.21 4.51-1.34 3.61-.99-2.58 1.35-3.27 1.75 1.93-.62 2.99-.86 1.65-.17.46-.13.88-.25 1.16-.3.32-.05.68-.11.89-.11.15 0 .2.03.27.06s.14.06.05.13c-.04.04-.13.09-.2.14 1.19-.44 2.26-.71 1.65-.38 1.09-.32 2.07-.59 2.81-.78 2.02-.6 3.12-.87 1.8-.29 3.06-.88 4.78-1.29 4.31-1.01-.46.28-3.15 1.27-8.54 3.11.07-.01.01.02.04.02.59-.2 1.32-.45 2.37-.81-.03.03-.06.07-.11.1-1.37.71-2.57 1.27-3.67 1.74 2.93-.92 3.81-.99 2.48-.26.09.07-.43.35-1.7.89 4.72-1.42 3.3-.66.76.41-2.55 1.07-6.24 2.44-6.39 2.47-1.38.51 2.1-.46 4.62-1.04 2.53-.59 4.08-.78-.75.96-.27.09-.6.21-.93.33-.88.3-1.94.66-3.18 1.09-1.08.55-1.91.97-2.72 1.33.52-.13.94-.22 1.18-.24.39-.07.59-.07.61 0v.02c-.03.06-.06.12-.13.19-.01.01-.04.03-.07.05l-.05.03c-.18.11-.37.21-.56.32l-.16.08-.09.04c-.29.13-.6.27-.9.4l-.17.07-.05.02c4.88-.99 6.35-.53-1.48 1.57-.42.15-.75.27-1.12.4-.9.46-1.61.81-2.27 1.11.46-.03-.41.27 3.41-.73-2.71 1.38-4.66 2.07-6.33 2.54-1.66.47-3.04.73-4.46 1.16.1 0 .19-.02.28-.02 5.26-1.36 8.23-1.93 8.47-1.72.25.21-2.18 1.18-7.52 2.76 1.11-.22 1.92-.33 2.53-.36.49-.1.77-.1.72 0 .58.08.35.42-.11.78-.09.07-.3.16-.46.24 2.94-.1 2.91.72-3.56 1.9-5.3 1-7.43 1.5.9-.15-2.79 1.39-3.44 1.7-7.13 2.4-1.34.28-3.1.6-5.83 1.09l.03-.03-.96.23c.59-.04.96-.02.94.1 3.38-.37 5.31-.51 6.29-.54 4.37-.7 4.37-.34 3.39.14-.99.49-2.94 1.1-2.69 1.06-3.31 1.61-3.54 1.68-9.61 2.45-.01.1-.02.2-.03.32 0 .07-.06.15-.15.24.92.1 1.86.29 2.83.65-1.43.31-4.52 1.39-8.24 2.18-.06.11-.14.24-.25.39 4.14.13 5.94.36 6.37.52.42.17-.56.28-2.29.4-.35.03-.75.06-1.21.09.87.27.54.67-.31 1.11.75-.02 1.6-.04 2.58-.06-2.54 1.2-3.08 1.42-6.1 1.44-.59.21-1.17.42-1.71.64 3.08.53 3.73.85 3.1.96-.64.12-2.61.06-5.08.01-.49.35-.71.71-.54 1.12-.59.12-1.19.21-1.79.29-.1.2-.22.44-.35.76.15 0 .29-.02.49-.03 1.87.59 1.06 1.39-.41 2.06.1.12.19.23.3.37-.47.02-.9.03-1.29.05-2.58.98-5.8 1.48-3.72 1.54.73.37 1.01.7 1.04 1 2.45 1.35 1.63 1.39-.43.92.89 1.07-1.15 1.72-3.21 2.32-2.1.63-4.18 1.18-4.26 2.75-.6.03-1.18 0-1.75-.07-.22.45-.53.63-.62.73.12.03.21.05.34.08.04.05.06.09.1.14.12.03.25.06.42.09 1.47 1.73-.48 2.62-2.33 3.03-1.85.43-3.58.39-2.31.88 1.03 1.62.29 2.31-.91 2.68-1.21.38-2.86.44-3.95 1.04-.14.16-.31.3-.54.39-.32.31-.57.71-.69 1.29-.98-.2-1.88-.71-2.7-1.34-.04 0-.08 0-.13-.02.28.57.38 1.11.24 1.41.17.41.26.77.26 1.05.21.17.44.37.73.61 2.31 4.44-3.64.03-3.42 3.27-.67-.31-.12.72-1.75-1.13-.03-.02-.05-.04-.07-.06-.11.19-.33.26-.69.14.1.17.21.35.32.55.91 1.58.89 2.67-.74 2.17-.1-.13-.18-.24-.27-.36-.03 0-.05 0-.07-.02-.22-.3-1.73-2.38-1.91-2.33.2.24.36.49.49.74.56.88.59 1.32.29 1.4-.04.12-.12.2-.23.24.2.47.27.9.15 1.15.51 1.17.42 1.98-1.05 1.53-3.17-4.4-3.86-4.23-5.18-4.76.16.2.32.39.48.58.99.53 2.34 2.15 2.72 3.36.97 1.29 1.4 2.13.67 2.21-.34-.35-.45-.47.02.05-.22-.08-.42-.17-.62-.27.59 1.27.15 1.46-1.77-1.14-.18-.1-.38-.21-.61-.35l.02.02s.04.04.06.07c1.27 1.22 1.67 3.21.23 2.6.95 1.59 1.23 2.93-.58 2.39-.22-.3-1.76-2.35-1.95-2.3 1.39 1.64 1.34 4.02-2.06.77-.12-.02-.26-.06-.43-.15-.14-.08-.25-.14-.35-.19.12.3.19.58.21.82.44 1.19.36.63-2.6-1.61.01.12.62.89.73 1.65 1.3 1.01 2.83 3.21 2.23 4.06v.02c-.15-.06-.17.71-2.3-.58.54.61.88 1.33.91 1.83-.04.03-.09.06-.13.09-.06.06-.05.2.02.36-.25.32-.97.15-2.32-1.01.09.46-.27.83-1.29 1.15 1.17 1.4 2.12 2.71 1.18 2.63-.81-.07-1.53-.81-2.17-1.71-.04.3-.3.41-.84.14-1.05-.52-.82-.73-.25.91-3.86-2.96-2.25-1.87-1.83-.52.97.76 1.4 1.37.94 1.87 1.44 1.17 3.99 4.82-.39 1.49.78 1 1.2 1.78.47 1.72-1.55-.12-2.85-2.74-3.73-4.18-.26.02-.44.06-.59.1.36.56.6 1.03.73 1.42.76.61 1.55 1.31.98 1.92 1.03 1.11 1.45 1.79 1.38 2.01l-.02.06c-.14.12-.64-.09-1.46-.64-.06.05-.12.1-.2.14.74.95 1.12 1.68.41 1.62-.07 0 .73 1.08.36 1.16-.02.13-.14.2-.37.18-.69-.05-1.33-.59-1.9-1.3.14 1.37.05.24-3.85-1.76.19.41.35.84.45 1.29 3.32 3.19 4.37 4.88 2.38 3.71 1.13 1.34 1.76 2.74-1.55.31.68.85 1.09 1.53.73 1.68.17.21.42.5.81.93-.41-.24-.98-.63-1.5-1-.44-.16-.86-.5-1.25-.93-.04-.03-.08-.07-.1-.09.98 1.21.76 1.52-.53.74 1.37 1.5 1.48 2.1.43 1.58-.02.16-.34 0-1.1-.46.82 1.01 1.28 1.8.54 1.75-.11 0 2.03 2.71-1.94-.15.1.95.17 1.02-.47.55l.58.58c-.28-.06-.53-.08-.76-.07-.81-.65-1.5-1.31-2.08-1.95-.34-.19-.7-.38-1.12-.59.2.41.36.84.47 1.29l.11.1c4.04 3.78 4.68 5.38.42 2.31-.16.1-.36.19-.59.29.3.34.74.78 1.29 1.31-.03.04-.04.11 0 .21.04.11.06.2.09.31-.08-.06-.15-.11-.23-.17.6.85-.04.52.45 1.17v.12l.03.36c-.85-.56-1.78-1.23-1.97-1.41.95 1.13.79 1.46-.34.85-.11.04-.34-.03-.63-.17 1.52 2.45 1.39 2.13-2.38-.1.13.15.73.92.53.78.22.44 1.16.82 2.04 2.27 1.25 2.05-1.41.02-3.66-1.55.21.3.4.61.53.93.12.28.58.74 1.2 1.34 0 0-.05.05-.04.1l.05.48c-.32-.23-.63-.47-.92-.71-2.21-1.68-2.38-2.82-3.93-3.66.33.44.92 1.25 1.24 2.4.1.06.19.12.29.18.07.11.13.21.19.31 1.47 1.38 3.05 3.12 1.84 2.73.58 1.2-2.78-1.72-2.32-.61.12.28.6.76 1.25 1.37-.05.14-.05.32-.05.51-1.61-1.15-2.81-2.41-3.61-3.46l-.06-.04c-.15.07-.31.11-.5.13 1.17 1.3 2.9 2.05 2.49 3.96.19.3.27.49.28.62-.17-.02-.34-.04-.49-.04-.08 0-.13.03-.2.04-1.24-.57-3.65-2.39-3.01-1.71-1.19-.85-.68-1.16-2.81-2.16 1.06 1.47.88 1.92.21 1.75.61.56 1.06 1.04 1.16 1.38.26.9-.19.74-.77.33.81.78 1.67 1.79 1.96 2.45.12.27.57.71 1.19 1.29l.02.19c-.14.06-.35.05-.58.01-2.38-1.77-2.39-2.95-4.38-3.77-.05-.09-.08-.16-.12-.23-.09-.04-.16-.07-.26-.11-.29-.58-.25-.6-.92-1.15.05.16.11.33.18.54 1 1.4.83 1.84.17 1.68.25.23.49.45.67.65.63.36 1.38.81 2.32 1.39 2.35 3.73 2.8 3.67-1.4 1.3.01.06.02.1.03.18v.05c.52.47.6.7 0 .15-.01.06-.04.11-.07.16-.09.1-.28.13-.49.09-.45-.08-1.09-.45-1.66-.97-.39-.35-.72-.76-.94-1.13-.27-.07-.58-.2-.91-.39.09.08.16.16.26.26.23.25.47.54.62.78.21.33.34.57.37.8.03.15.01.25-.06.32l-.18.09c-.07 0-.12.02-.18.03l-.03.03v.1c.01.08.04.16.07.24.06.13.14.27.22.41.11.16.23.32.35.48.32.36.65.72.93 1.08.7.96.75 1.69-.06 1.55-.65-.11-1.62-.86-2.21-1.63-.18-.23-.27-.43-.33-.61l-.12-.13c-.26-.31-.53-.62-.75-.93-.28-.38-.5-.75-.7-1.11-2.27-1.77 2.38 2.47.11 1.95.07.07.15.14.22.2.7.61 1.23 1.14 1.34 1.49.63 2.01-2.49-1.26-2.38-.85-.25-.28-.46-.51-.64-.71-.28-.27-.58-.55-.88-.84-.3-.15.14.69.4 1.45.07-.06.4.07 1.12.27 1.16 1.85 1.22 1.58-.57.88-.57-1.08.12-.19-5.27-4.51-2.39.96 5.42 5.42 5.89 6.94.71 2.25-4.09-2.43-6.81-5.24 0 .02-.01.05-.01.1-.38-.22-.33-.15-.31-.43-.86-.9-1.45-1.54-1.47-1.59-1.42-1.44 2.22-1.53 3.82-1.11-.9-.93-1.64-1.7-2.08-2.15l-.04.02c-.04-.07-.05-.1-.05-.1l-.1-.1c-.04-.02-.07-.04-.12-.07 1.38 1.55-.06 1.36-.46 1.62-.42-.16-.77-.45-1.1-.77-.39-.31-.73-.69-1.09-1.03h-.01c-2.64-2.04-1.76-.89-2.04-.66-1.7 1.43-9.26-9.4-1.73-2.47l-.06-.01Zm44.85-82.48c-.04-.06-.08-.14-.12-.22.02 1.04-.04 1.53-.11 1.76.04-.04.06-.06.1-.09.05-.33.1-.81.14-1.46l-.01.01Zm4.18.29c-.06.13-.12.16-.17.19v.07c.05-.07.12-.14.18-.21v-.06l-.01.01Zm56.53-9.84c.79-.39 1.59-.79 2.48-1.23-.73.34-1.26.57-1.68.75-.2.13-.48.3-.79.48h-.01Zm2.74 3.86c-.83.3-1.66.6-2.54.91-.94.36-1.91.73-2.94 1.12 1.76-.61 1.91-.62 2.26-.73.34-.11.95-.36 3.22-1.3Zm-35.52 13.9c.37-.14.71-.26.95-.36.59-.22 1.02-.39 1.39-.53-4.28 1.45-5.69 1.92-5.86 1.94-.5.17-1.02.35-1.61.56-.56.24-.82.36 2.74-.85 1.26-.43 1.71-.57 1.92-.63.22-.06.15-.03.47-.15v.02Zm-1.12 1.67c.27-.09.47-.16.63-.23-.65.12-.96.16-.73.05-.9.23-2.02.52-3.52.9-.23.09-.4.17-.23.15.11-.03.21-.05.33-.08 1.31-.34 1.89-.46 1.99-.44.03 0 .05-.01.07-.02.89-.22 1.27-.29 1.46-.33Zm29.06-6.61c.02-.08 0-.14-.15-.16-1.09.21-1.89.36-2.51.47-.37.1-.8.2-1.26.32.01.03-.21.13-.68.3 1.62-.31 3.15-.61 4.6-.93Zm-34.11 8.4s.03 0 .05-.01h-.04l-.01.01Zm24.98-4.34h-.01l-.07.09c.25-.05.44-.08.68-.12-.19.01-.38.02-.59.04l-.01-.01Zm-25.91 5.1s.15-.04.27-.07c-.12.02-.21.04-.34.07h.07Zm4.58-.63c.31-.25.68-.33 1.58-.47.28-.08.77-.17 1.58-.3 1.1-.26 2.54-.59 4.17-.92-.84.12-1.56.23-2.23.32-1.16.2-2.45.43-3.76.66-2.22.45-2.42.57-3.62.85 1.7-.26.61-.02-1.07.29 1.66-.24 2.72-.36 3.35-.44v.01Zm-5.12 1.85c2.94-.3 4.54-.47 5.26-.5.11-.02.23-.04.35-.05-.24-.04-.44-.08-.59-.12-4.38.47-6.55.56-5.02.68v-.01Zm2.43.22c.51-.05 1.02-.1 1.54-.14.07-.03.29-.06.57-.1h-.29c-.18.04-.31.06-.33.07-1.88.1-1.68.12-1.49.18V36Zm18.27.43c.12-.05.21-.08.28-.12-.06-.02-.15-.04-.23-.06-.38.06-.81.1-1.23.12.5.02.91.04 1.19.06h-.01Zm-16.98 1.87c.27.06.43.1.56.14-.03-.04-.07-.08-.12-.12-.15 0-.28-.01-.43-.02h-.01Zm.61.45c.03-.08.04-.15.02-.21-.24-.02-.7-.12-1.16-.28-.49-.04-1-.09-1.52-.16.7.17 1.55.37 2.66.64v.01Zm-4.63 3.84c-.02-.15-.02-.23-.04-.29-.08-.07-.17-.15-.27-.22-.21-.11-.58-.3-1.26-.72.46.4.53.42 1.58 1.23h-.01Zm-8.52 10.33c.37.26.81.54 1.33.88.47.14.7.13.06-.68-.08.35-.94.02-1.4-.2h.01Zm-7.21-3.54c.08.06.15.12.23.19 0 0-.46-1-.46-1.03-.08-.06-.15-.11-.22-.16.04.31.14.64.45 1.01v-.01Zm-3.87 5.85c1.74 1.46 1.08 1.35 1.99 1.33-.33-.32-.73-.65-1.21-.99-.29-.2-.56-.41-.82-.63.02.1.03.2.04.29Zm6.52 11.03c-.99-.86-1.6-1.37-2.03-1.76.65.64 1.31 1.33 1.97 2.04.25-.23.6.19.06-.27v-.01Zm-2.94-2.66c.16.16.34.33.51.5-.14-.15-.26-.29-.37-.45-.04-.02-.09-.04-.14-.06v.01Zm-6.65 1.95c.26.22.52.44.74.62.05-.07.12-.12.21-.15l.27-.1c-.47-.06-.87-.19-1.23-.37h.01Zm-3.22 1.36s.07.03.1.04l-.06-.06s-.03.01-.04.02Zm-.35 16.01.34.2c-.05-.09-.13-.15-.34-.2Zm3.51 2.15h-.01l.03.02v-.02h-.02Zm-13.98-11.13c.25.22.48.46.69.72-.12-.81-.13-1.28 2.46.15-.18-.21-.36-.41-.52-.6-1.35-1.2-2.87-3.49-1.46-2.81-.16-.22-.58-.38-.93-.59-.23.21-.46.74-.98 1.48.24.49.49 1.05.74 1.66v-.01Zm3.64 11.65c.51.29 1.51.83 2.21 1.12v-.02c-1.2-.95-1.87-1.47-2.23-1.72-.1 0-.2-.02-.33-.06.08.15.21.4.35.68Zm-4.18-1.72c-.13-.1-.25-.19-.4-.3.48.55.51.63.4.3Zm4.4 5.6c.3.15.61.3.92.46-.23-.22-.52-.39-.94-.47v.02l.02-.01Zm-8.05-7.33c.05.13.11.28.17.44.14.07.27.14.42.22-.19-.2-.38-.42-.59-.65v-.01Zm3.39 12.3c-.19-.13-.54-.42-1.29-1.1a3.75 3.75 0 0 0-.54-.4c.11.21.15.43.1.66.73.35 1.28.62 1.72.84h.01Zm.9.31c-.53-.3-.57-.2-.69-.22.26.12.48.22.66.31.03-.02.06-.03.03-.09Zm-2.03-4.31c.05.11.1.21.16.33l.34.24c-.15-.17-.32-.37-.5-.57Zm-2.67 1.07s-.04-.05-.07-.08c-.95-1.25-.05-1.07 0-1.55.05-.47-1.4-2.87.49-1.09-.2-.3-.41-.63-.62-.95-.59-.42-1.15-.81-1.66-1.17 1.36 3.2 1 2.29-.97.45.26.76.22 1.17 0 1.35 1.13 1.5 1.68 2.35 2.81 3.04h.02Zm-.98.55c.23.11.46.28.71.47.1 0 .22 0 .37.05-.69-.58-1.32-1.07-1.93-1.54.36.44.63.77.85 1.01v.01Zm4.94 6.36c.4.22.8.44 1.17.68-.3-.3-.64-.65-.98-.99 0 .17-.06.28-.19.31Zm-3.65-2.54c.11.08.23.18.33.25a4.85 4.85 0 0 1-.31-.4v.14l-.02.01Zm-4.05-1.91.11-.14v-.02s-.02-.11-.03-.15l-.18-.36c-.02-.03-.02-.03-.03-.05l-.1-.15-.26-.39c-.19-.26-.38-.53-.57-.79-.28-.39-.4-.55-.67-.88l-.22-.26c-.1-.07-.2-.15-.32-.23h-.01c.15.35.33.81.63 1.54.36.24.74.56 1.05.91.32.36.5.69.58.97h.02Zm-6.51-5.78-.02-.08v-.13l-.19-.24c-.2-.18-.33-.31-.36-.32.21.28.4.52.58.76l-.01.01Zm3.92 8.16c.09.03.23.06.33.08-.16-.12-.34-.25-.5-.37.01.04.03.08.05.13l.12.16Zm-.58 2.92c.67.12 1.32.3299 1.92.5899-.38-.32-.78-.6599-1.24-1.0399.21.07.39.13.55.19-.43-.25-.9-.56-1.33-.92-.2-.04-.44-.13-.7-.29-.55-.33-1.07-.83-1.45-1.34-.03.06-.06.11-.1.15.98 1.25 1.53 2.04 2.35 2.67v-.01Zm-5.03-1.45c1.76 1.01 3.46 1.79 3.47 1.19-1.14-.83-2.16-1.5-3.01-2.06-.04.04-.08.08-.13.1-.18.08-.36.18-.53.28.02.05.04.08.04.08l.13.27c.02.05.03.09.04.13l-.01.01Zm8.4 9.31c-.21-.17-.34-.26-.32-.17-.12-.14-.23-.27-.34-.39-.21.02-.56-.11-1.03-.4.08.21.17.45.25.68.08-.06.4.08 1.12.28 0 .01.01.02.02.04 0-.13.11-.13.3-.03v-.01Zm-8.78-5.46c.14.05.27.1.4.13.08.02.18.07.26.1.62-.11 1.44-.1 2.16-.02-.41-.53-.66-.9-.83-1.17-.09.38-.77.36-1.03.52-.87-.34-1.45-1.27-2.18-1.84-.21-.16-.37-.28-.53-.41.5.79 1.07 1.66 1.64 2.48.05.07.07.13.11.2v.01Zm3.33 3.96c-.22-.32-.45-.59-.69-.84-.01 0-.02.01-.03.02.19.26.43.53.72.82Zm-6.69 1.56c.3-.07.6-.11.9-.12-.02-.04 0-.07-.04-.12.1.05.17.08.24.11.48 0 .95.06 1.42.16-.02-.24 0-.45.09-.62.02-.03.05-.05.07-.08-.59-.44-1.14-.95-1.47-1.44-.76-.13-1.7-.52-2.7-1.1l.1.2c.31.75.31 1.34-.04 1.61.21.14.42.3.63.48.34.29.59.62.78.92h.02Z"/>
  <path fill="#000" d="M721.9 9.7399c-.18-.06-.14-.14-.04.2999l.04-.3Z"/>
</svg>
